<svg width="50" height="50" viewBox="0 0 50 50" fill="none" xmlns="http://www.w3.org/2000/svg">
<path d="M38.5 6C38.3674 6 38.2402 6.05268 38.1464 6.14645C38.0527 6.24021 38 6.36739 38 6.5C38 6.63261 38.0527 6.75979 38.1464 6.85355C38.2402 6.94732 38.3674 7 38.5 7C38.6326 7 38.7598 6.94732 38.8536 6.85355C38.9473 6.75979 39 6.63261 39 6.5C39 6.36739 38.9473 6.24021 38.8536 6.14645C38.7598 6.05268 38.6326 6 38.5 6Z" fill="#F1BC19"/>
<path d="M25 6.5C20.0935 6.5 15.3879 8.4491 11.9185 11.9185C8.4491 15.3879 6.5 20.0935 6.5 25C6.5 29.9065 8.4491 34.6121 11.9185 38.0815C15.3879 41.5509 20.0935 43.5 25 43.5C29.9065 43.5 34.6121 41.5509 38.0815 38.0815C41.5509 34.6121 43.5 29.9065 43.5 25C43.5 20.0935 41.5509 15.3879 38.0815 11.9185C34.6121 8.4491 29.9065 6.5 25 6.5V6.5Z" fill="#E4E4F9"/>
<path d="M41.5 5.5C40.9696 5.5 40.4609 5.71071 40.0858 6.08579C39.7107 6.46086 39.5 6.96957 39.5 7.5C39.5 8.03043 39.7107 8.53914 40.0858 8.91421C40.4609 9.28929 40.9696 9.5 41.5 9.5C42.0304 9.5 42.5391 9.28929 42.9142 8.91421C43.2893 8.53914 43.5 8.03043 43.5 7.5C43.5 6.96957 43.2893 6.46086 42.9142 6.08579C42.5391 5.71071 42.0304 5.5 41.5 5.5V5.5Z" fill="#F1BC19"/>
<path d="M43.5 11C43.2348 11 42.9804 11.1054 42.7929 11.2929C42.6054 11.4804 42.5 11.7348 42.5 12C42.5 12.2652 42.6054 12.5196 42.7929 12.7071C42.9804 12.8946 43.2348 13 43.5 13C43.7652 13 44.0196 12.8946 44.2071 12.7071C44.3946 12.5196 44.5 12.2652 44.5 12C44.5 11.7348 44.3946 11.4804 44.2071 11.2929C44.0196 11.1054 43.7652 11 43.5 11Z" fill="#8889B9"/>
<path d="M40.5 37C40.2348 37 39.9804 37.1054 39.7929 37.2929C39.6054 37.4804 39.5 37.7348 39.5 38C39.5 38.2652 39.6054 38.5196 39.7929 38.7071C39.9804 38.8946 40.2348 39 40.5 39C40.7652 39 41.0196 38.8946 41.2071 38.7071C41.3946 38.5196 41.5 38.2652 41.5 38C41.5 37.7348 41.3946 37.4804 41.2071 37.2929C41.0196 37.1054 40.7652 37 40.5 37ZM7.5 29.5C6.96957 29.5 6.46086 29.7107 6.08579 30.0858C5.71071 30.4609 5.5 30.9696 5.5 31.5C5.5 32.0304 5.71071 32.5391 6.08579 32.9142C6.46086 33.2893 6.96957 33.5 7.5 33.5C8.03043 33.5 8.53914 33.2893 8.91421 32.9142C9.28929 32.5391 9.5 32.0304 9.5 31.5C9.5 30.9696 9.28929 30.4609 8.91421 30.0858C8.53914 29.7107 8.03043 29.5 7.5 29.5Z" fill="#FBCD59"/>
<path d="M12.5 42.5C12.2348 42.5 11.9804 42.6054 11.7929 42.7929C11.6054 42.9804 11.5 43.2348 11.5 43.5C11.5 43.7652 11.6054 44.0196 11.7929 44.2071C11.9804 44.3946 12.2348 44.5 12.5 44.5C12.7652 44.5 13.0196 44.3946 13.2071 44.2071C13.3946 44.0196 13.5 43.7652 13.5 43.5C13.5 43.2348 13.3946 42.9804 13.2071 42.7929C13.0196 42.6054 12.7652 42.5 12.5 42.5Z" fill="#8889B9"/>
<path d="M9.25 24.5C8.91848 24.5 8.60054 24.6317 8.36612 24.8661C8.1317 25.1005 8 25.4185 8 25.75C8 26.0815 8.1317 26.3995 8.36612 26.6339C8.60054 26.8683 8.91848 27 9.25 27C9.58152 27 9.89946 26.8683 10.1339 26.6339C10.3683 26.3995 10.5 26.0815 10.5 25.75C10.5 25.4185 10.3683 25.1005 10.1339 24.8661C9.89946 24.6317 9.58152 24.5 9.25 24.5ZM39.75 16C39.5511 16 39.3603 16.079 39.2197 16.2197C39.079 16.3603 39 16.5511 39 16.75C39 16.9489 39.079 17.1397 39.2197 17.2803C39.3603 17.421 39.5511 17.5 39.75 17.5C39.9489 17.5 40.1397 17.421 40.2803 17.2803C40.421 17.1397 40.5 16.9489 40.5 16.75C40.5 16.5511 40.421 16.3603 40.2803 16.2197C40.1397 16.079 39.9489 16 39.75 16Z" fill="white"/>
<path d="M25 12.8125C23.4077 12.8125 21.831 13.1261 20.36 13.7355C18.8889 14.3448 17.5522 15.2379 16.4263 16.3638C15.3004 17.4897 14.4073 18.8264 13.798 20.2975C13.1886 21.7685 12.875 23.3452 12.875 24.9375C12.875 26.5298 13.1886 28.1065 13.798 29.5775C14.4073 31.0486 15.3004 32.3853 16.4263 33.5112C17.5522 34.6371 18.8889 35.5302 20.36 36.1395C21.831 36.7489 23.4077 37.0625 25 37.0625C26.5923 37.0625 28.169 36.7489 29.64 36.1395C31.1111 35.5302 32.4478 34.6371 33.5737 33.5112C34.6996 32.3853 35.5927 31.0486 36.202 29.5775C36.8114 28.1065 37.125 26.5298 37.125 24.9375C37.125 23.3452 36.8114 21.7685 36.202 20.2975C35.5927 18.8264 34.6996 17.4897 33.5737 16.3638C32.4478 15.2379 31.1111 14.3448 29.64 13.7355C28.169 13.1261 26.5923 12.8125 25 12.8125V12.8125Z" fill="#A3A3CD"/>
<path d="M25.0004 37.4124C18.1219 37.4124 12.5254 31.8164 12.5254 24.9374C12.5254 18.0584 18.1219 12.4624 25.0004 12.4624C31.8789 12.4624 37.4754 18.0584 37.4754 24.9374C37.4754 31.8164 31.8789 37.4124 25.0004 37.4124ZM25.0004 13.1624C18.5079 13.1624 13.2254 18.4444 13.2254 24.9374C13.2254 31.4304 18.5079 36.7124 25.0004 36.7124C31.4929 36.7124 36.7754 31.4304 36.7754 24.9374C36.7754 18.4444 31.4929 13.1624 25.0004 13.1624Z" fill="#472B29"/>
<path d="M25 14.5835C22.2815 14.5835 19.6744 15.6634 17.7522 17.5857C15.8299 19.5079 14.75 22.115 14.75 24.8335C14.75 27.552 15.8299 30.1591 17.7522 32.0813C19.6744 34.0036 22.2815 35.0835 25 35.0835C27.7185 35.0835 30.3256 34.0036 32.2478 32.0813C34.1701 30.1591 35.25 27.552 35.25 24.8335C35.25 22.115 34.1701 19.5079 32.2478 17.5857C30.3256 15.6634 27.7185 14.5835 25 14.5835V14.5835Z" fill="#565FA1"/>
<path d="M34.7124 22.3123C34.6054 22.3123 34.5064 22.2428 34.4734 22.1353C34.4294 21.9918 34.3819 21.8498 34.3314 21.7088C34.1354 21.1618 33.8884 20.6293 33.5964 20.1243C33.5269 20.0053 33.5679 19.8518 33.6874 19.7828C33.8069 19.7123 33.9599 19.7543 34.0289 19.8743C34.3359 20.4048 34.5959 20.9653 34.8019 21.5398C34.8549 21.6883 34.9049 21.8373 34.9509 21.9883C34.9914 22.1203 34.9174 22.2603 34.7849 22.3008C34.7609 22.3088 34.7364 22.3123 34.7124 22.3123Z" fill="#472B29"/>
<path d="M25 35.375C19.2445 35.375 14.5625 30.7065 14.5625 24.9685C14.5625 19.2305 19.2445 14.5625 25 14.5625C27.9875 14.5625 30.837 15.8425 32.818 18.074C32.9675 18.2425 33.112 18.4165 33.2505 18.5945C33.335 18.7035 33.3155 18.86 33.207 18.945C33.098 19.0305 32.941 19.0105 32.856 18.901C32.724 18.7315 32.586 18.5665 32.444 18.406C30.558 16.281 27.8445 15.062 25 15.062C19.5205 15.062 15.0625 19.506 15.0625 24.9685C15.0625 30.431 19.5205 34.875 25 34.875C30.4795 34.875 34.9375 30.431 34.9375 24.9685C34.9375 24.471 34.9 23.9705 34.8265 23.482C34.806 23.346 34.9 23.2185 35.0365 23.198C35.1755 23.1755 35.3005 23.2715 35.321 23.408C35.398 23.9205 35.4375 24.446 35.4375 24.9685C35.4375 30.7065 30.7555 35.375 25 35.375Z" fill="#472B29"/>
<path d="M30.7485 21.0438C30.931 20.2083 30.8515 19.1723 30.5055 18.1348C28.6945 18.1348 27.336 19.4928 27.336 19.4928C27.336 19.4928 27.344 19.5018 27.346 19.5043C27.314 19.5038 27.283 19.4998 27.2505 19.4998H22.7505C22.729 19.4998 22.708 19.5028 22.6865 19.5028C22.688 19.5008 22.695 19.4928 22.695 19.4928C22.695 19.4928 21.3365 18.1348 19.5255 18.1348C19.1835 19.1613 19.1005 20.1868 19.2755 21.0183C18.487 21.8658 18.0005 22.9998 18.0005 24.2498C18.0005 26.8733 20.127 28.9998 22.7505 28.9998H23.287C22.635 29.3543 22.164 29.9893 22.0405 30.7488C21.1805 30.8648 20.051 30.8388 19.5265 30.0518C18.621 28.6933 18.168 28.6933 17.7155 28.6933C17.263 28.6933 17.2625 29.1463 17.7155 29.5988C18.1685 30.0518 18.1685 30.0518 18.621 30.9573C19.007 31.7288 20.027 32.6063 22.001 32.2888V34.0503C22.001 34.2738 22.0405 34.4858 22.0965 34.6913C23.309 34.9798 25.3475 35.2218 27.929 34.6158C27.972 34.4338 28.0005 34.2463 28.0005 34.0508V31.1428C28.0005 30.2138 27.477 29.4148 26.714 28.9998H27.2505C29.874 28.9998 32.0005 26.8733 32.0005 24.2498C32.0005 23.0123 31.5235 21.8893 30.7485 21.0438Z" fill="#FEFDEF"/>
<path d="M24.7662 35.2428C23.6512 35.2428 22.7287 35.0993 22.0377 34.9348C21.9487 34.9138 21.8782 34.8453 21.8542 34.7573C21.7832 34.4963 21.7502 34.2713 21.7502 34.0508V32.5748C19.4687 32.8318 18.6107 31.4978 18.3967 31.0693C17.9617 30.1998 17.9617 30.1998 17.5382 29.7758C17.1877 29.4253 17.0487 29.0468 17.1657 28.7643C17.2502 28.5603 17.4502 28.4433 17.7147 28.4433C18.3232 28.4433 18.8242 28.5488 19.7337 29.9128C20.1532 30.5418 21.0717 30.6023 21.8302 30.5218C21.9452 30.0328 22.1922 29.5943 22.5417 29.2448C19.8812 29.1358 17.7502 26.9373 17.7502 24.2498C17.7502 23.0288 18.1957 21.8598 19.0067 20.9433C18.8537 20.0823 18.9527 19.0628 19.2887 18.0558C19.3227 17.9538 19.4182 17.8848 19.5257 17.8848C21.2042 17.8848 22.4912 18.9648 22.8017 19.2498H27.2287C27.5392 18.9648 28.8262 17.8848 30.5047 17.8848C30.6122 17.8848 30.7077 17.9538 30.7417 18.0558C31.0812 19.0743 31.1777 20.1038 31.0172 20.9708C31.8127 21.8838 32.2497 23.0438 32.2497 24.2503C32.2497 26.9378 30.1182 29.1368 27.4572 29.2458C27.9577 29.7443 28.2497 30.4228 28.2497 31.1428V34.0508C28.2497 34.2468 28.2237 34.4508 28.1707 34.6738C28.1492 34.7663 28.0767 34.8378 27.9847 34.8593C26.7912 35.1398 25.7097 35.2428 24.7662 35.2428ZM22.3012 34.4823C23.5072 34.7508 25.3777 34.9323 27.7162 34.4083C27.7387 34.2818 27.7502 34.1638 27.7502 34.0508V31.1428C27.7502 30.3443 27.3072 29.6078 26.5942 29.2198C26.4937 29.1653 26.4432 29.0493 26.4712 28.9383C26.4992 28.8273 26.5992 28.7498 26.7132 28.7498H27.2502C29.7312 28.7498 31.7502 26.7313 31.7502 24.2498C31.7502 23.1263 31.3287 22.0478 30.5637 21.2128C30.5087 21.1528 30.4867 21.0698 30.5037 20.9908C30.6692 20.2323 30.6047 19.3148 30.3237 18.3898C28.8887 18.4663 27.7747 19.4268 27.5527 19.6318C27.5072 19.7073 27.4302 19.7548 27.3382 19.7548C27.3347 19.7548 27.2902 19.7518 27.2867 19.7518L22.7502 19.7498C22.6742 19.7498 22.5842 19.7163 22.5292 19.6593L22.5187 19.6698C22.5062 19.6578 21.2997 18.4748 19.7072 18.3893C19.4287 19.3048 19.3622 20.2138 19.5207 20.9663C19.5377 21.0458 19.5142 21.1288 19.4587 21.1883C18.6792 22.0258 18.2502 23.1133 18.2502 24.2498C18.2502 26.7313 20.2692 28.7498 22.7502 28.7498H23.2867C23.4012 28.7498 23.5007 28.8273 23.5287 28.9383C23.5572 29.0493 23.5067 29.1648 23.4057 29.2198C22.8032 29.5468 22.3952 30.1193 22.2867 30.7893C22.2687 30.8983 22.1827 30.9823 22.0732 30.9968C20.7412 31.1758 19.7892 30.8978 19.3177 30.1913C18.4862 28.9443 18.1117 28.9443 17.7147 28.9443C17.6462 28.9443 17.6247 28.9603 17.6242 28.9603C17.6117 28.9923 17.6457 29.1778 17.8912 29.4233C18.3727 29.9048 18.3902 29.9398 18.8437 30.8468C19.0282 31.2148 19.7992 32.3933 21.9602 32.0428C22.0337 32.0323 22.1062 32.0523 22.1622 32.0993C22.2177 32.1473 22.2502 32.2163 22.2502 32.2898V34.0513C22.2502 34.1858 22.2667 34.3253 22.3012 34.4823Z" fill="#472B29"/>
<path d="M30.219 25.6812C29.769 26.6782 28.781 27.5072 27.042 27.6462Z" fill="#FEFDEF"/>
<path d="M27.0419 27.7711C26.9774 27.7711 26.9229 27.7211 26.9174 27.6561C26.9119 27.5871 26.9629 27.5271 27.0319 27.5216C28.9344 27.3691 29.7529 26.4081 30.1049 25.6296C30.1339 25.5661 30.2074 25.5381 30.2704 25.5671C30.3329 25.5956 30.3614 25.6691 30.3329 25.7321C29.7964 26.9206 28.6314 27.6441 27.0519 27.7706C27.0489 27.7711 27.0454 27.7711 27.0419 27.7711Z" fill="#472B29"/>
<path d="M30.4798 23.7051C30.5353 24.0816 30.5343 24.4811 30.4648 24.8761Z" fill="#FEFDEF"/>
<path d="M30.4653 25.0009C30.4578 25.0009 30.4508 25.0004 30.4433 24.9989C30.3753 24.9874 30.3298 24.9224 30.3418 24.8544C30.4063 24.4874 30.4113 24.0959 30.3563 23.7229C30.3458 23.6549 30.3933 23.5909 30.4613 23.5814C30.5298 23.5714 30.5933 23.6179 30.6033 23.6869C30.6633 24.0914 30.6578 24.4989 30.5878 24.8974C30.5778 24.9584 30.5248 25.0009 30.4653 25.0009Z" fill="#472B29"/>
<path d="M29.541 21.9375C29.8575 22.163 30.114 22.527 30.285 22.965Z" fill="#FEFDEF"/>
<path d="M30.2851 23.0906C30.2351 23.0906 30.1881 23.0601 30.1686 23.0111C30.0016 22.5831 29.7596 22.2471 29.4686 22.0401C29.4126 22.0001 29.3991 21.9221 29.4391 21.8656C29.4796 21.8091 29.5571 21.7966 29.6136 21.8356C29.9446 22.0716 30.2171 22.4466 30.4016 22.9201C30.4266 22.9846 30.3946 23.0566 30.3306 23.0821C30.3156 23.0876 30.3006 23.0906 30.2851 23.0906Z" fill="#472B29"/>
</svg>
