<svg width="50" height="50" viewBox="0 0 50 50" fill="none" xmlns="http://www.w3.org/2000/svg">
<path d="M6.5 13.4995C6.23478 13.4995 5.98043 13.6049 5.79289 13.7924C5.60536 13.9799 5.5 14.2343 5.5 14.4995C5.5 14.7647 5.60536 15.0191 5.79289 15.2066C5.98043 15.3942 6.23478 15.4995 6.5 15.4995C6.76521 15.4995 7.01957 15.3942 7.2071 15.2066C7.39464 15.0191 7.5 14.7647 7.5 14.4995C7.5 14.2343 7.39464 13.9799 7.2071 13.7924C7.01957 13.6049 6.76521 13.4995 6.5 13.4995Z" fill="#EE3E54"/>
<path d="M38.5 6C38.3674 6 38.2402 6.05268 38.1464 6.14645C38.0527 6.24022 38 6.36739 38 6.5C38 6.63261 38.0527 6.75979 38.1464 6.85355C38.2402 6.94732 38.3674 7 38.5 7C38.6326 7 38.7598 6.94732 38.8536 6.85355C38.9473 6.75979 39 6.63261 39 6.5C39 6.36739 38.9473 6.24022 38.8536 6.14645C38.7598 6.05268 38.6326 6 38.5 6Z" fill="#F1BC19"/>
<path d="M25 6.5C20.0935 6.5 15.3879 8.4491 11.9185 11.9185C8.4491 15.3879 6.5 20.0935 6.5 25C6.5 29.9065 8.4491 34.6121 11.9185 38.0815C15.3879 41.5509 20.0935 43.5 25 43.5C29.9065 43.5 34.6121 41.5509 38.0815 38.0815C41.5509 34.6121 43.5 29.9065 43.5 25C43.5 20.0935 41.5509 15.3879 38.0815 11.9185C34.6121 8.4491 29.9065 6.5 25 6.5V6.5Z" fill="#FCE0A2"/>
<path d="M41.499 5.49951C40.9686 5.49951 40.4599 5.71023 40.0848 6.0853C39.7097 6.46037 39.499 6.96908 39.499 7.49951C39.499 8.02994 39.7097 8.53865 40.0848 8.91372C40.4599 9.2888 40.9686 9.49951 41.499 9.49951C42.0295 9.49951 42.5382 9.2888 42.9132 8.91372C43.2883 8.53865 43.499 8.02994 43.499 7.49951C43.499 6.96908 43.2883 6.46037 42.9132 6.0853C42.5382 5.71023 42.0295 5.49951 41.499 5.49951V5.49951Z" fill="#F1BC19"/>
<path d="M43.5 11C43.2348 11 42.9804 11.1054 42.7929 11.2929C42.6054 11.4804 42.5 11.7348 42.5 12C42.5 12.2652 42.6054 12.5196 42.7929 12.7071C42.9804 12.8946 43.2348 13 43.5 13C43.7652 13 44.0196 12.8946 44.2071 12.7071C44.3946 12.5196 44.5 12.2652 44.5 12C44.5 11.7348 44.3946 11.4804 44.2071 11.2929C44.0196 11.1054 43.7652 11 43.5 11Z" fill="#EE3E54"/>
<path d="M40.5 37C40.2348 37 39.9804 37.1053 39.7929 37.2929C39.6054 37.4804 39.5 37.7348 39.5 38C39.5 38.2652 39.6054 38.5196 39.7929 38.7071C39.9804 38.8946 40.2348 39 40.5 39C40.7652 39 41.0196 38.8946 41.2071 38.7071C41.3946 38.5196 41.5 38.2652 41.5 38C41.5 37.7348 41.3946 37.4804 41.2071 37.2929C41.0196 37.1053 40.7652 37 40.5 37ZM7.5 29.5C6.96957 29.5 6.46086 29.7107 6.08579 30.0858C5.71071 30.4609 5.5 30.9696 5.5 31.5C5.5 32.0304 5.71071 32.5391 6.08579 32.9142C6.46086 33.2893 6.96957 33.5 7.5 33.5C8.03043 33.5 8.53914 33.2893 8.91421 32.9142C9.28929 32.5391 9.5 32.0304 9.5 31.5C9.5 30.9696 9.28929 30.4609 8.91421 30.0858C8.53914 29.7107 8.03043 29.5 7.5 29.5Z" fill="#FBCD59"/>
<path d="M12.499 42.5C12.2338 42.5 11.9795 42.6054 11.7919 42.7929C11.6044 42.9804 11.499 43.2348 11.499 43.5C11.499 43.7652 11.6044 44.0196 11.7919 44.2071C11.9795 44.3946 12.2338 44.5 12.499 44.5C12.7642 44.5 13.0186 44.3946 13.2061 44.2071C13.3937 44.0196 13.499 43.7652 13.499 43.5C13.499 43.2348 13.3937 42.9804 13.2061 42.7929C13.0186 42.6054 12.7642 42.5 12.499 42.5Z" fill="#EE3E54"/>
<path d="M9.24902 25.5005C8.9175 25.5005 8.59956 25.6322 8.36514 25.8666C8.13072 26.101 7.99902 26.419 7.99902 26.7505C7.99902 27.082 8.13072 27.4 8.36514 27.6344C8.59956 27.8688 8.9175 28.0005 9.24902 28.0005C9.58054 28.0005 9.89849 27.8688 10.1329 27.6344C10.3673 27.4 10.499 27.082 10.499 26.7505C10.499 26.419 10.3673 26.101 10.1329 25.8666C9.89849 25.6322 9.58054 25.5005 9.24902 25.5005V25.5005Z" fill="white"/>
<path d="M10.5 33.0005C10.3674 33.0005 10.2402 33.0532 10.1464 33.1469C10.0527 33.2407 10 33.3679 10 33.5005C10 33.6331 10.0527 33.7603 10.1464 33.854C10.2402 33.9478 10.3674 34.0005 10.5 34.0005C10.6326 34.0005 10.7598 33.9478 10.8536 33.854C10.9473 33.7603 11 33.6331 11 33.5005C11 33.3679 10.9473 33.2407 10.8536 33.1469C10.7598 33.0532 10.6326 33.0005 10.5 33.0005Z" fill="#F1BC19"/>
<path d="M39.999 16.4995C39.8664 16.4995 39.7392 16.5522 39.6455 16.646C39.5517 16.7397 39.499 16.8669 39.499 16.9995C39.499 17.1321 39.5517 17.2593 39.6455 17.3531C39.7392 17.4468 39.8664 17.4995 39.999 17.4995C40.1316 17.4995 40.2588 17.4468 40.3526 17.3531C40.4463 17.2593 40.499 17.1321 40.499 16.9995C40.499 16.8669 40.4463 16.7397 40.3526 16.646C40.2588 16.5522 40.1316 16.4995 39.999 16.4995Z" fill="white"/>
<path d="M32.501 36.4995H17.501C15.301 36.4995 13.501 34.6995 13.501 32.4995V17.4995C13.501 15.2995 15.301 13.4995 17.501 13.4995H32.501C34.701 13.4995 36.501 15.2995 36.501 17.4995V32.4995C36.501 34.6995 34.701 36.4995 32.501 36.4995Z" fill="#FED5B3"/>
<path d="M32.8135 14H17.1885C15.428 14 14.001 15.427 14.001 17.1875V21H36.001V17.1875C36.001 15.427 34.574 14 32.8135 14Z" fill="#D68F53"/>
<path d="M30.4993 20.9692H14.0313C13.8933 20.9692 13.7812 20.8572 13.7812 20.7192C13.7812 20.5812 13.8933 20.4692 14.0313 20.4692H30.4993C30.6373 20.4692 30.7493 20.5812 30.7493 20.7192C30.7493 20.8572 30.6373 20.9692 30.4993 20.9692ZM35.9998 20.9692H32.9993C32.8613 20.9692 32.7493 20.8572 32.7493 20.7192C32.7493 20.5812 32.8613 20.4692 32.9993 20.4692H35.9998C36.1378 20.4692 36.2498 20.5812 36.2498 20.7192C36.2498 20.8572 36.1378 20.9692 35.9998 20.9692Z" fill="#472B29"/>
<path d="M25 19.5005C23.5413 19.5005 22.1424 20.08 21.1109 21.1114C20.0795 22.1429 19.5 23.5418 19.5 25.0005C19.5 26.4592 20.0795 27.8581 21.1109 28.8896C22.1424 29.921 23.5413 30.5005 25 30.5005C26.4587 30.5005 27.8576 29.921 28.8891 28.8896C29.9205 27.8581 30.5 26.4592 30.5 25.0005C30.5 23.5418 29.9205 22.1429 28.8891 21.1114C27.8576 20.08 26.4587 19.5005 25 19.5005V19.5005Z" fill="#FEFDEF"/>
<path d="M25 30.7505C21.8295 30.7505 19.25 28.171 19.25 25.0005C19.25 21.83 21.8295 19.2505 25 19.2505C28.1705 19.2505 30.75 21.83 30.75 25.0005C30.75 28.171 28.1705 30.7505 25 30.7505ZM25 19.7505C22.105 19.7505 19.75 22.1055 19.75 25.0005C19.75 27.8955 22.105 30.2505 25 30.2505C27.895 30.2505 30.25 27.8955 30.25 25.0005C30.25 22.1055 27.895 19.7505 25 19.7505Z" fill="#472B29"/>
<path d="M16.5 13.75C15.95 13.75 15.5 14.2 15.5 14.75V20.75H16.5V13.75Z" fill="#F15B6C"/>
<path d="M24.999 21.5C24.0708 21.5 23.1805 21.8687 22.5241 22.5251C21.8678 23.1815 21.499 24.0717 21.499 25C21.499 25.9283 21.8678 26.8185 22.5241 27.4749C23.1805 28.1312 24.0708 28.5 24.999 28.5C25.9273 28.5 26.8175 28.1312 27.4739 27.4749C28.1303 26.8185 28.499 25.9283 28.499 25C28.499 24.0717 28.1303 23.1815 27.4739 22.5251C26.8175 21.8687 25.9273 21.5 24.999 21.5Z" fill="#8F9EB6"/>
<path d="M23.25 22.5C22.9185 22.5 22.6005 22.6317 22.3661 22.8661C22.1317 23.1005 22 23.4185 22 23.75C22 24.0815 22.1317 24.3995 22.3661 24.6339C22.6005 24.8683 22.9185 25 23.25 25C23.5815 25 23.8995 24.8683 24.1339 24.6339C24.3683 24.3995 24.5 24.0815 24.5 23.75C24.5 23.4185 24.3683 23.1005 24.1339 22.8661C23.8995 22.6317 23.5815 22.5 23.25 22.5Z" fill="#77CBD2"/>
<path d="M23.25 25.25C22.423 25.25 21.75 24.577 21.75 23.75C21.75 22.923 22.423 22.25 23.25 22.25C24.077 22.25 24.75 22.923 24.75 23.75C24.75 24.577 24.077 25.25 23.25 25.25ZM23.25 22.75C22.6985 22.75 22.25 23.1985 22.25 23.75C22.25 24.3015 22.6985 24.75 23.25 24.75C23.8015 24.75 24.25 24.3015 24.25 23.75C24.25 23.1985 23.8015 22.75 23.25 22.75Z" fill="#472B29"/>
<path d="M30.75 16.25H33.75V19.25H30.75V16.25Z" fill="#B77748"/>
<path d="M34 19.5H30.5V16H34V19.5ZM31 19H33.5V16.5H31V19Z" fill="#472B29"/>
<path d="M16.501 14H17.501V20.5H16.501V14Z" fill="#F9E65C"/>
<path d="M17.5 14H18.5V20.5H17.5V14Z" fill="#A1D3A2"/>
<path d="M18.5 14H19.5V20.5H18.5V14Z" fill="#39C2D8"/>
<path d="M32.501 14.1995C34.3205 14.1995 35.801 15.68 35.801 17.4995V32.4995C35.801 34.319 34.3205 35.7995 32.501 35.7995H17.501C15.6815 35.7995 14.201 34.319 14.201 32.4995V17.4995C14.201 15.68 15.6815 14.1995 17.501 14.1995H32.501ZM32.501 13.4995H17.501C15.301 13.4995 13.501 15.2995 13.501 17.4995V32.4995C13.501 34.6995 15.301 36.4995 17.501 36.4995H32.501C34.701 36.4995 36.501 34.6995 36.501 32.4995V17.4995C36.501 15.2995 34.701 13.4995 32.501 13.4995Z" fill="#472B29"/>
<path d="M18.8747 19.8828H16.1022C15.7192 19.8828 15.4092 20.1928 15.4092 20.5758C15.4092 20.9588 15.7192 21.2688 16.1022 21.2688H18.8747C19.2577 21.2688 19.5677 20.9588 19.5677 20.5758C19.5682 20.1928 19.2577 19.8828 18.8747 19.8828Z" fill="#B77748"/>
<path d="M18.8742 21.5193H16.1017C15.5817 21.5193 15.1582 21.0958 15.1582 20.5758C15.1582 20.0558 15.5817 19.6323 16.1017 19.6323H18.8742C19.3942 19.6323 19.8177 20.0558 19.8177 20.5758C19.8177 21.0958 19.3942 21.5193 18.8742 21.5193ZM16.1017 20.1328C15.8572 20.1328 15.6582 20.3313 15.6582 20.5763C15.6582 20.8213 15.8567 21.0198 16.1017 21.0198H18.8742C19.1187 21.0198 19.3177 20.8213 19.3177 20.5763C19.3177 20.3313 19.1192 20.1328 18.8742 20.1328H16.1017Z" fill="#472B29"/>
<path d="M27.9024 27.207C27.8539 27.207 27.8054 27.1935 27.7624 27.164C27.6479 27.087 27.6179 26.9315 27.6954 26.817C28.0579 26.28 28.2499 25.6515 28.2499 25C28.2499 24.862 28.3619 24.75 28.4999 24.75C28.6379 24.75 28.7499 24.862 28.7499 25C28.7499 25.752 28.5284 26.477 28.1094 27.097C28.0609 27.1685 27.9824 27.207 27.9024 27.207Z" fill="#472B29"/>
<path d="M25 28.75C22.932 28.75 21.25 27.068 21.25 25C21.25 22.932 22.932 21.25 25 21.25C26.338 21.25 27.584 21.971 28.252 23.132C28.321 23.2515 28.2795 23.4045 28.1595 23.4735C28.0405 23.5415 27.887 23.5015 27.818 23.381C27.2395 22.375 26.1595 21.75 25 21.75C23.208 21.75 21.75 23.208 21.75 25C21.75 26.792 23.208 28.25 25 28.25C25.138 28.25 25.25 28.362 25.25 28.5C25.25 28.638 25.138 28.75 25 28.75Z" fill="#472B29"/>
</svg>
