<svg width="50" height="50" viewBox="0 0 50 50" fill="none" xmlns="http://www.w3.org/2000/svg">
<path d="M6.5 13.4995C6.23478 13.4995 5.98043 13.6049 5.79289 13.7924C5.60536 13.9799 5.5 14.2343 5.5 14.4995C5.5 14.7647 5.60536 15.0191 5.79289 15.2066C5.98043 15.3942 6.23478 15.4995 6.5 15.4995C6.76521 15.4995 7.01957 15.3942 7.2071 15.2066C7.39464 15.0191 7.5 14.7647 7.5 14.4995C7.5 14.2343 7.39464 13.9799 7.2071 13.7924C7.01957 13.6049 6.76521 13.4995 6.5 13.4995Z" fill="#EE3E54"/>
<path d="M38.5 6C38.3674 6 38.2402 6.05268 38.1464 6.14645C38.0527 6.24022 38 6.36739 38 6.5C38 6.63261 38.0527 6.75979 38.1464 6.85355C38.2402 6.94732 38.3674 7 38.5 7C38.6326 7 38.7598 6.94732 38.8536 6.85355C38.9473 6.75979 39 6.63261 39 6.5C39 6.36739 38.9473 6.24022 38.8536 6.14645C38.7598 6.05268 38.6326 6 38.5 6Z" fill="#F1BC19"/>
<path d="M25 6.5C20.0935 6.5 15.3879 8.4491 11.9185 11.9185C8.4491 15.3879 6.5 20.0935 6.5 25C6.5 29.9065 8.4491 34.6121 11.9185 38.0815C15.3879 41.5509 20.0935 43.5 25 43.5C29.9065 43.5 34.6121 41.5509 38.0815 38.0815C41.5509 34.6121 43.5 29.9065 43.5 25C43.5 20.0935 41.5509 15.3879 38.0815 11.9185C34.6121 8.4491 29.9065 6.5 25 6.5V6.5Z" fill="#FCE0A2"/>
<path d="M41.499 5.49951C40.9686 5.49951 40.4599 5.71023 40.0848 6.0853C39.7097 6.46037 39.499 6.96908 39.499 7.49951C39.499 8.02994 39.7097 8.53865 40.0848 8.91372C40.4599 9.2888 40.9686 9.49951 41.499 9.49951C42.0295 9.49951 42.5382 9.2888 42.9132 8.91372C43.2883 8.53865 43.499 8.02994 43.499 7.49951C43.499 6.96908 43.2883 6.46037 42.9132 6.0853C42.5382 5.71023 42.0295 5.49951 41.499 5.49951V5.49951Z" fill="#F1BC19"/>
<path d="M43.5 11C43.2348 11 42.9804 11.1054 42.7929 11.2929C42.6054 11.4804 42.5 11.7348 42.5 12C42.5 12.2652 42.6054 12.5196 42.7929 12.7071C42.9804 12.8946 43.2348 13 43.5 13C43.7652 13 44.0196 12.8946 44.2071 12.7071C44.3946 12.5196 44.5 12.2652 44.5 12C44.5 11.7348 44.3946 11.4804 44.2071 11.2929C44.0196 11.1054 43.7652 11 43.5 11Z" fill="#EE3E54"/>
<path d="M40.5 37C40.2348 37 39.9804 37.1053 39.7929 37.2929C39.6054 37.4804 39.5 37.7348 39.5 38C39.5 38.2652 39.6054 38.5196 39.7929 38.7071C39.9804 38.8946 40.2348 39 40.5 39C40.7652 39 41.0196 38.8946 41.2071 38.7071C41.3946 38.5196 41.5 38.2652 41.5 38C41.5 37.7348 41.3946 37.4804 41.2071 37.2929C41.0196 37.1053 40.7652 37 40.5 37ZM7.5 29.5C6.96957 29.5 6.46086 29.7107 6.08579 30.0858C5.71071 30.4609 5.5 30.9696 5.5 31.5C5.5 32.0304 5.71071 32.5391 6.08579 32.9142C6.46086 33.2893 6.96957 33.5 7.5 33.5C8.03043 33.5 8.53914 33.2893 8.91421 32.9142C9.28929 32.5391 9.5 32.0304 9.5 31.5C9.5 30.9696 9.28929 30.4609 8.91421 30.0858C8.53914 29.7107 8.03043 29.5 7.5 29.5Z" fill="#FBCD59"/>
<path d="M12.499 42.5C12.2338 42.5 11.9795 42.6054 11.7919 42.7929C11.6044 42.9804 11.499 43.2348 11.499 43.5C11.499 43.7652 11.6044 44.0196 11.7919 44.2071C11.9795 44.3946 12.2338 44.5 12.499 44.5C12.7642 44.5 13.0186 44.3946 13.2061 44.2071C13.3937 44.0196 13.499 43.7652 13.499 43.5C13.499 43.2348 13.3937 42.9804 13.2061 42.7929C13.0186 42.6054 12.7642 42.5 12.499 42.5Z" fill="#EE3E54"/>
<path d="M9.24902 25.5005C8.9175 25.5005 8.59956 25.6322 8.36514 25.8666C8.13072 26.101 7.99902 26.419 7.99902 26.7505C7.99902 27.082 8.13072 27.4 8.36514 27.6344C8.59956 27.8688 8.9175 28.0005 9.24902 28.0005C9.58054 28.0005 9.89849 27.8688 10.1329 27.6344C10.3673 27.4 10.499 27.082 10.499 26.7505C10.499 26.419 10.3673 26.101 10.1329 25.8666C9.89849 25.6322 9.58054 25.5005 9.24902 25.5005V25.5005Z" fill="white"/>
<path d="M10.5 33.0005C10.3674 33.0005 10.2402 33.0532 10.1464 33.1469C10.0527 33.2407 10 33.3679 10 33.5005C10 33.6331 10.0527 33.7603 10.1464 33.854C10.2402 33.9478 10.3674 34.0005 10.5 34.0005C10.6326 34.0005 10.7598 33.9478 10.8536 33.854C10.9473 33.7603 11 33.6331 11 33.5005C11 33.3679 10.9473 33.2407 10.8536 33.1469C10.7598 33.0532 10.6326 33.0005 10.5 33.0005Z" fill="#F1BC19"/>
<path d="M39.999 16.4995C39.8664 16.4995 39.7392 16.5522 39.6455 16.646C39.5517 16.7397 39.499 16.8669 39.499 16.9995C39.499 17.1321 39.5517 17.2593 39.6455 17.3531C39.7392 17.4468 39.8664 17.4995 39.999 17.4995C40.1316 17.4995 40.2588 17.4468 40.3526 17.3531C40.4463 17.2593 40.499 17.1321 40.499 16.9995C40.499 16.8669 40.4463 16.7397 40.3526 16.646C40.2588 16.5522 40.1316 16.4995 39.999 16.4995Z" fill="white"/>
<path d="M17.5006 36.1486C15.5006 36.1486 13.8506 34.4986 13.8506 32.4986V17.4986C13.8506 15.4986 15.5006 13.8486 17.5006 13.8486H32.5006C34.5006 13.8486 36.1506 15.4986 36.1506 17.4986V32.4986C36.1506 34.4986 34.5006 36.1486 32.5006 36.1486H17.5006Z" fill="#127AD8"/>
<path d="M32.501 14.1995C34.301 14.1995 35.801 15.6995 35.801 17.4995V32.4995C35.801 34.2995 34.301 35.7995 32.501 35.7995H17.501C15.701 35.7995 14.201 34.2995 14.201 32.4995V17.4995C14.201 15.6995 15.701 14.1995 17.501 14.1995H32.501ZM32.501 13.4995H17.501C15.301 13.4995 13.501 15.2995 13.501 17.4995V32.4995C13.501 34.6995 15.301 36.4995 17.501 36.4995H32.501C34.701 36.4995 36.501 34.6995 36.501 32.4995V17.4995C36.501 15.2995 34.701 13.4995 32.501 13.4995Z" fill="#472B29"/>
<path d="M31.7996 34.25H18.2496C16.8996 34.25 15.8496 33.15 15.8496 31.85V18.15C15.8496 16.8 16.9496 15.75 18.2496 15.75H31.7996C33.1496 15.75 34.1996 16.85 34.1996 18.15V31.8C34.1996 33.15 33.1496 34.25 31.7996 34.25Z" fill="#FDFCEE"/>
<path d="M34.249 23.7C34.099 23.7 33.999 23.6 33.999 23.45V21.5C33.999 21.35 34.099 21.25 34.249 21.25C34.399 21.25 34.499 21.35 34.499 21.5V23.45C34.499 23.6 34.399 23.7 34.249 23.7Z" fill="#472B29"/>
<path d="M34.249 20.25C34.099 20.25 33.999 20.15 33.999 20V19C33.999 18.85 34.099 18.75 34.249 18.75C34.399 18.75 34.499 18.85 34.499 19V20C34.499 20.15 34.399 20.25 34.249 20.25Z" fill="#472B29"/>
<path d="M32 34.5H18C16.6 34.5 15.5 33.4 15.5 32V18C15.5 16.6 16.6 15.5 18 15.5H30.7C30.85 15.5 30.95 15.6 30.95 15.75C30.95 15.9 30.85 16 30.7 16H18C16.9 16 16 16.9 16 18V32C16 33.1 16.9 34 18 34H32C33.1 34 34 33.1 34 32V24.8C34 24.65 34.1 24.55 34.25 24.55C34.4 24.55 34.5 24.65 34.5 24.8V32C34.5 33.4 33.4 34.5 32 34.5Z" fill="#472B29"/>
<path d="M30.2521 25.8002V29.2502H28.2021L28.1521 25.8002C28.1521 24.9502 27.7521 24.3002 26.9521 24.3002C26.3521 24.3002 26.0021 24.7002 25.8521 25.1002C25.8021 25.2502 25.8021 25.4502 25.8021 25.6002V29.2002H23.7021C23.7021 29.2002 23.7521 23.3502 23.7021 22.7502H25.8021V23.7502C26.1021 23.2502 26.6021 22.7002 27.7521 22.7002C29.2021 22.7502 30.2521 23.6502 30.2521 25.8002Z" fill="#127AD8"/>
<path d="M30.2504 29.5002H28.2004C28.0504 29.5002 27.9504 29.4002 27.9504 29.2502L27.9004 25.8002C27.9004 25.4502 27.8004 24.5502 26.9504 24.5502C26.4004 24.5502 26.1504 25.0002 26.0504 25.2002C26.0504 25.2502 26.0004 25.4002 26.0004 25.6502V29.2502C26.0004 29.4002 25.9004 29.5002 25.7504 29.5002H23.6504C23.6004 29.5002 23.5004 29.4502 23.4504 29.4502C23.4004 29.4002 23.4004 29.3502 23.4004 29.2502C23.4004 29.2002 23.4504 23.4002 23.4004 22.8002C23.4004 22.7502 23.4004 22.6502 23.4504 22.6002C23.5004 22.5502 23.5504 22.5002 23.6504 22.5002H25.7504C25.9004 22.5002 26.0004 22.6002 26.0004 22.7502V23.0502C26.4504 22.6502 27.0004 22.4502 27.7004 22.4502C28.5004 22.4502 29.1004 22.7002 29.6004 23.1502C30.1504 23.7002 30.4504 24.6002 30.4504 25.7502V29.2002C30.5004 29.4002 30.4004 29.5002 30.2504 29.5002ZM28.4504 29.0002H30.0004V25.8002C30.0004 24.8002 29.7504 24.0502 29.3004 23.5502C28.9504 23.2002 28.4004 23.0002 27.8004 23.0002C26.7504 23.0002 26.3004 23.5002 26.0504 23.9002C25.9504 24.1002 25.7004 24.1002 25.6004 23.9502C25.5504 23.9002 25.5504 23.8002 25.6004 23.7502V23.0502H24.0004C24.0004 24.1502 24.0004 28.0002 24.0004 29.0002H25.6004V25.6502C25.6004 25.4002 25.6504 25.2002 25.7004 25.0502C25.9504 24.4502 26.4504 24.1002 27.0504 24.1002C27.9504 24.1002 28.5004 24.7502 28.5004 25.8502L28.4504 29.0002Z" fill="#472B29"/>
<path d="M21.1992 19.8989C20.5992 19.8989 20.1992 20.2989 20.1992 20.8989C20.1992 21.4489 20.5992 21.8989 21.1992 21.8989C21.8492 21.8989 22.1992 21.4489 22.1992 20.8989C22.1992 20.2989 21.7992 19.8989 21.1992 19.8989Z" fill="#127AD8"/>
<path d="M21.1992 22.0996C20.4492 22.0996 19.9492 21.5996 19.9492 20.8496C19.9492 20.0996 20.4992 19.5996 21.1992 19.5996C21.8992 19.5996 22.4492 20.0996 22.4492 20.7996C22.4492 21.5996 21.8992 22.0996 21.1992 22.0996ZM21.1992 20.1496C20.7492 20.1496 20.4492 20.4496 20.4492 20.8996C20.4492 21.3496 20.7492 21.6496 21.1992 21.6496C21.6492 21.6496 21.9992 21.3496 21.9992 20.8996C21.9492 20.4496 21.6492 20.1496 21.1992 20.1496Z" fill="#472B29"/>
<path d="M20.1992 22.7998H22.2992V29.2498H20.1992V22.7998Z" fill="#127AD8"/>
<path d="M22.2992 29.4998H20.1992C20.0492 29.4998 19.9492 29.3998 19.9492 29.2498V22.7998C19.9492 22.6498 20.0492 22.5498 20.1992 22.5498H22.2992C22.4492 22.5498 22.5492 22.6498 22.5492 22.7998V29.2498C22.5492 29.3998 22.4492 29.4998 22.2992 29.4998ZM20.4492 28.9998H22.0492V23.0498H20.4492V28.9998Z" fill="#472B29"/>
</svg>
