<svg width="272" height="52" viewBox="0 0 272 52" fill="none" xmlns="http://www.w3.org/2000/svg">
<path d="M41.545 6.445C41.545 5.395 41.065 4.405 40.105 3.475C38.725 2.155 36.82 1.495 34.39 1.495C32.26 1.495 29.905 1.96 27.325 2.89C25.975 3.37 24.805 4.03 23.815 4.87C22.285 6.19 21.52 7.51 21.52 8.83C21.52 10.6 22.645 12.19 24.895 13.6C25.735 14.11 27.415 14.95 29.935 16.12C32.485 17.26 34.345 18.19 35.515 18.91C37.285 19.99 38.5 21.145 39.16 22.375C39.85 23.605 40.195 24.745 40.195 25.795C40.195 27.295 39.7 28.825 38.71 30.385C36.97 33.175 34.42 35.575 31.06 37.585C27.19 39.925 22.525 41.095 17.065 41.095C11.815 41.095 7.645 39.76 4.555 37.09C2.155 35.05 0.955 32.425 0.955 29.215C0.955 27.175 1.69 24.925 3.16 22.465C4.66 20.005 6.49 18.265 8.65 17.245C9.1 17.065 9.43 17.005 9.64 17.065C9.88 17.125 9.7 17.41 9.1 17.92C7.81 18.94 6.775 20.065 5.995 21.295C4.315 23.935 3.475 26.8 3.475 29.89C3.475 31.93 4.045 33.715 5.185 35.245C7.225 37.975 10.765 39.52 15.805 39.88C16.375 39.94 17.215 39.97 18.325 39.97C19.465 39.97 20.995 39.76 22.915 39.34C24.865 38.95 26.74 38.29 28.54 37.36C32.41 35.32 34.915 32.68 36.055 29.44C36.415 28.48 36.595 27.55 36.595 26.65C36.595 24.61 35.68 22.81 33.85 21.25C32.86 20.47 30.835 19.435 27.775 18.145C24.745 16.825 22.705 15.82 21.655 15.13C19.345 13.57 18.19 11.725 18.19 9.595C18.19 7.735 19.225 5.92 21.295 4.15C24.265 1.63 28.465 0.37 33.895 0.37C36.445 0.37 38.515 0.759999 40.105 1.54C41.725 2.29 42.715 3.43 43.075 4.96C43.135 5.26 43.165 5.56 43.165 5.86C43.165 7.03 42.625 8.08 41.545 9.01C40.795 9.61 39.79 10.09 38.53 10.45C37.99 10.6 37.69 10.54 37.63 10.27C37.57 9.88 37.945 9.64 38.755 9.55C40.195 9.37 41.08 8.65 41.41 7.39C41.5 7.06 41.545 6.745 41.545 6.445ZM37.9165 51.22C36.5965 51.22 35.5765 50.935 34.8565 50.365C34.1365 49.825 33.7765 49.165 33.7765 48.385C33.7765 47.605 34.0015 46.72 34.4515 45.73C35.2315 44.2 36.6415 42.97 38.6815 42.04C40.2115 41.32 42.2365 40.645 44.7565 40.015C47.2765 39.415 48.8965 39.01 49.6165 38.8C50.6965 36.91 51.9865 33.535 53.4865 28.675C51.7465 31.735 50.2915 33.88 49.1215 35.11C47.9515 36.34 46.7665 36.955 45.5665 36.955C43.9465 36.955 43.0015 36.28 42.7315 34.93C42.6115 34.72 42.5815 34.405 42.6415 33.985C42.7015 33.565 42.7315 33.265 42.7315 33.085C42.7615 32.905 42.8665 32.62 43.0465 32.23C43.2265 31.81 43.3465 31.51 43.4065 31.33C43.7365 30.64 44.0215 30.1 44.2615 29.71C43.7815 29.71 43.6465 29.47 43.8565 28.99L44.6665 27.415C45.6865 25.465 46.5265 23.815 47.1865 22.465C47.4865 21.835 48.0715 21.52 48.9415 21.52H51.6865C51.6265 21.58 51.4765 21.7 51.2365 21.88C50.6965 22.24 50.2915 22.66 50.0215 23.14C48.9415 25 47.5915 27.655 45.9715 31.105C45.3115 32.515 44.9815 33.55 44.9815 34.21C44.9815 34.87 45.0865 35.335 45.2965 35.605C45.5365 35.875 45.8515 36.01 46.2415 36.01C46.8115 36.01 47.6065 35.41 48.6265 34.21C50.7565 31.72 53.1115 27.805 55.6915 22.465C56.0215 21.835 56.6065 21.52 57.4465 21.52H59.8765C59.0965 22.06 58.4815 22.75 58.0315 23.59C57.5815 24.4 57.0865 25.51 56.5465 26.92C56.0365 28.33 55.3765 30.205 54.5665 32.545C53.7865 34.885 53.1865 36.64 52.7665 37.81C55.5865 36.97 57.7465 35.485 59.2465 33.355C59.9065 32.425 60.8515 30.775 62.0815 28.405C62.2915 27.985 62.4715 27.82 62.6215 27.91C62.8015 28 62.8915 28.12 62.8915 28.27C62.8915 28.42 62.6365 29.005 62.1265 30.025C61.6465 31.015 61.1515 31.945 60.6415 32.815C60.1315 33.655 59.4715 34.525 58.6615 35.425C57.8515 36.325 56.9515 37.03 55.9615 37.54C54.9715 38.08 53.6515 38.65 52.0015 39.25C49.6915 43.45 47.3665 46.54 45.0265 48.52C42.8365 50.32 40.4665 51.22 37.9165 51.22ZM35.3065 46.765C34.9765 47.425 34.8115 48.025 34.8115 48.565C34.8115 49.135 35.0215 49.57 35.4415 49.87C35.8615 50.17 36.3865 50.32 37.0165 50.32C38.7565 50.32 40.6165 49.42 42.5965 47.62C44.5765 45.85 46.3165 43.945 47.8165 41.905L48.8065 40.24C43.8565 41.53 40.7365 42.46 39.4465 43.03C37.5265 43.87 36.1465 45.115 35.3065 46.765ZM75.7802 24.805C75.2402 25.345 74.4752 26.575 73.4852 28.495C72.4952 30.385 71.8952 31.81 71.6852 32.77C71.5052 33.7 71.4152 34.465 71.4152 35.065C71.4152 35.635 71.6402 35.92 72.0902 35.92C72.6602 35.92 73.3652 35.395 74.2052 34.345C75.4352 32.815 76.6502 30.82 77.8502 28.36C77.9702 28.09 78.1052 27.94 78.2552 27.91C78.4952 27.82 78.6152 27.91 78.6152 28.18C78.6152 28.33 78.5702 28.51 78.4802 28.72C75.7202 34.3 73.3952 37.09 71.5052 37.09C70.6352 37.09 69.9302 36.67 69.3902 35.83C69.1202 35.38 68.9852 34.78 68.9852 34.03C68.9852 33.28 69.1352 32.365 69.4352 31.285C67.0352 35.155 64.9652 37.09 63.2252 37.09C62.7452 37.09 62.3102 36.94 61.9202 36.64C61.0202 36.01 60.5702 34.93 60.5702 33.4C60.5702 30.46 61.8452 27.475 64.3952 24.445C65.8352 22.765 67.6052 21.67 69.7052 21.16C70.2752 21.01 70.8152 20.935 71.3252 20.935C72.7052 20.935 73.8752 21.415 74.8352 22.375C75.1352 22.705 75.2252 23.02 75.1052 23.32C74.9852 23.62 74.7302 23.74 74.3402 23.68C74.0102 22.6 73.2902 22.06 72.1802 22.06C70.8902 22.06 69.3002 23.08 67.4102 25.12C66.3302 26.32 65.3252 27.73 64.3952 29.35C63.2252 31.3 62.6402 32.86 62.6402 34.03C62.6402 35.2 63.0152 35.785 63.7652 35.785C65.5652 35.785 67.9202 33.025 70.8302 27.505C71.4002 26.395 71.8802 25.645 72.2702 25.255C72.6602 24.835 73.1552 24.625 73.7552 24.625C73.8752 24.625 74.1752 24.67 74.6552 24.76C75.1652 24.85 75.5402 24.865 75.7802 24.805ZM70.5426 50.95C69.2526 50.95 68.2776 50.56 67.6176 49.78C66.9276 49 66.5826 48.205 66.5826 47.395C66.5826 46.585 66.8376 45.805 67.3476 45.055C67.8276 44.305 68.4426 43.645 69.1926 43.075C69.9126 42.535 70.6176 42.07 71.3076 41.68C71.9976 41.32 72.9726 40.9 74.2326 40.42C75.4626 39.97 76.4226 39.625 77.1126 39.385C77.8026 39.175 78.8826 38.845 80.3526 38.395C81.8226 37.945 82.7976 37.645 83.2776 37.495C83.8176 35.755 84.0876 34.435 84.0876 33.535C84.0876 31.975 83.6526 31.195 82.7826 31.195C82.6626 31.195 82.5426 31.21 82.4226 31.24C80.9826 31.99 80.1276 32.26 79.8576 32.05C79.7076 31.93 79.6476 31.78 79.6776 31.6C79.7076 31.42 79.8426 31.3 80.0826 31.24C82.1226 30.61 83.8026 29.29 85.1226 27.28C85.5126 26.68 85.7076 26.125 85.7076 25.615C85.7076 25.105 85.4976 24.61 85.0776 24.13C84.6576 23.65 84.2076 23.41 83.7276 23.41C82.2276 23.41 80.9826 24.265 79.9926 25.975C79.1526 27.385 78.3576 28.885 77.6076 30.475C77.4276 30.895 77.2326 31.045 77.0226 30.925C76.8126 30.775 76.8276 30.46 77.0676 29.98C78.6576 26.86 79.5426 25.15 79.7226 24.85C81.0726 22.39 82.9176 21.16 85.2576 21.16C86.3076 21.16 87.1026 21.55 87.6426 22.33C87.9426 22.75 88.0926 23.38 88.0926 24.22C88.0926 25.03 87.6876 26.035 86.8776 27.235C86.0976 28.405 85.0326 29.395 83.6826 30.205C83.7126 30.205 83.7426 30.205 83.7726 30.205C85.7226 30.205 86.7276 31.18 86.7876 33.13C86.7876 34.27 86.6226 35.365 86.2926 36.415C88.5726 35.965 90.8826 33.28 93.2226 28.36C93.3426 28.09 93.4926 27.94 93.6726 27.91C93.8826 27.82 93.9876 27.91 93.9876 28.18C93.9876 28.51 93.5976 29.38 92.8176 30.79C92.0376 32.2 91.3026 33.37 90.6126 34.3C89.3526 36.1 87.8226 37.18 86.0226 37.54C84.8526 40.75 83.1126 43.495 80.8026 45.775C78.5226 48.085 75.7926 49.705 72.6126 50.635C71.8626 50.845 71.1726 50.95 70.5426 50.95ZM68.4276 46.495C68.2476 47.065 68.1576 47.65 68.1576 48.25C68.1576 48.85 68.3826 49.285 68.8326 49.555C69.2826 49.825 69.7026 49.96 70.0926 49.96C71.5326 49.96 73.1226 49.405 74.8626 48.295C76.5726 47.215 78.1476 45.835 79.5876 44.155C81.0276 42.475 82.1226 40.63 82.8726 38.62C82.2426 38.83 81.2526 39.13 79.9026 39.52C78.5526 39.91 77.4876 40.225 76.7076 40.465C74.6076 41.125 72.9426 41.815 71.7126 42.535C70.0926 43.465 68.9976 44.785 68.4276 46.495ZM113.239 21.295L113.014 22.06C111.694 26.44 110.494 29.65 109.414 31.69C107.464 35.29 105.334 37.09 103.024 37.09C101.944 37.09 101.209 36.82 100.819 36.28C100.429 35.71 100.204 35.2 100.144 34.75C100.114 34.3 100.099 33.91 100.099 33.58C100.099 32.77 100.234 31.885 100.504 30.925C98.2845 34.975 96.2895 37 94.5195 37C93.8595 37 93.2595 36.82 92.7195 36.46C92.1795 36.07 91.8495 35.56 91.7295 34.93C91.6395 34.78 91.5945 34.6 91.5945 34.39C91.5945 33.1 92.1495 31.54 93.2595 29.71C92.7795 29.71 92.6445 29.47 92.8545 28.99L93.6645 27.415C95.1345 24.535 95.9745 22.885 96.1845 22.465C96.4845 21.835 97.0695 21.52 97.9395 21.52H100.684C99.6045 22.3 98.5095 23.815 97.3995 26.065C96.3195 28.285 95.4795 30.025 94.8795 31.285C94.3095 32.545 94.0245 33.52 94.0245 34.21C94.0245 34.87 94.1295 35.35 94.3395 35.65C94.5795 35.92 94.8795 36.055 95.2395 36.055C95.5995 36.055 96.0345 35.815 96.5445 35.335C97.0545 34.825 97.5195 34.285 97.9395 33.715C98.3595 33.145 98.7795 32.5 99.1995 31.78C99.6495 31.06 100.054 30.385 100.414 29.755C100.774 29.095 101.164 28.345 101.584 27.505C102.004 26.635 102.334 25.96 102.574 25.48C103.444 23.74 103.924 22.735 104.014 22.465C104.284 21.835 104.854 21.52 105.724 21.52H108.469C108.409 21.58 108.244 21.7 107.974 21.88C107.374 22.27 106.939 22.705 106.669 23.185C105.319 25.435 104.374 27.25 103.834 28.63C102.634 31.69 102.034 33.655 102.034 34.525C102.034 35.605 102.439 36.16 103.249 36.19C103.309 36.19 103.384 36.19 103.474 36.19C105.634 36.19 107.764 33.58 109.864 28.36C109.444 27.46 109.234 26.635 109.234 25.885C109.234 25.135 109.324 24.46 109.504 23.86C110.014 22.12 110.824 21.055 111.934 20.665C112.144 20.575 112.339 20.53 112.519 20.53C112.999 20.53 113.239 20.785 113.239 21.295ZM120.736 19.495C120.316 19.855 119.851 20.035 119.341 20.035C118.831 20.035 118.426 19.855 118.126 19.495C117.826 19.135 117.706 18.7 117.766 18.19C117.856 17.68 118.111 17.245 118.531 16.885C118.951 16.525 119.416 16.345 119.926 16.345C120.436 16.345 120.841 16.525 121.141 16.885C121.471 17.245 121.591 17.68 121.501 18.19C121.411 18.7 121.156 19.135 120.736 19.495ZM116.326 36.01C116.896 36.01 117.496 35.725 118.126 35.155C119.236 34.045 120.646 31.78 122.356 28.36C122.566 27.91 122.776 27.775 122.986 27.955C123.046 28.015 123.076 28.12 123.076 28.27C123.076 28.39 122.956 28.72 122.716 29.26C122.476 29.77 122.251 30.235 122.041 30.655C121.861 31.075 121.486 31.765 120.916 32.725C120.376 33.655 119.881 34.375 119.431 34.885C118.201 36.295 117.031 37 115.921 37C114.841 37 114.061 36.67 113.581 36.01C113.101 35.35 112.861 34.615 112.861 33.805C112.861 32.995 113.056 32.11 113.446 31.15L116.326 23.815C116.386 23.635 116.416 23.395 116.416 23.095C116.416 22.795 116.236 22.405 115.876 21.925L118.351 21.88C119.041 21.88 119.446 22.015 119.566 22.285C119.686 22.525 119.596 22.915 119.296 23.455L115.696 31.87C115.186 32.98 114.931 33.925 114.931 34.705C114.931 35.575 115.396 36.01 116.326 36.01ZM135.983 22.24C132.293 28.72 130.448 32.95 130.448 34.93C130.448 35.71 130.733 36.1 131.303 36.1C132.833 36.1 134.888 33.505 137.468 28.315C137.648 27.895 137.828 27.73 138.008 27.82C138.188 27.91 138.278 28.03 138.278 28.18C138.278 28.33 138.218 28.51 138.098 28.72C136.508 31.93 135.158 34.15 134.048 35.38C132.968 36.58 131.873 37.18 130.763 37.18C129.683 37.18 128.858 36.76 128.288 35.92C127.988 35.53 127.838 35.005 127.838 34.345C127.838 33.655 127.988 32.83 128.288 31.87C128.588 30.91 129.413 29.35 130.763 27.19C131.093 26.65 131.258 26.23 131.258 25.93C131.258 25.6 131.003 25.435 130.493 25.435C129.983 25.435 129.008 26.11 127.568 27.46C125.408 29.44 123.323 32.41 121.313 36.37C121.133 36.67 120.923 36.865 120.683 36.955C120.473 37.015 120.038 37.06 119.378 37.09C118.718 37.12 118.283 37.195 118.073 37.315C118.553 36.355 119.498 34.39 120.908 31.42C123.428 26.17 125.078 23.17 125.858 22.42C126.218 22.06 126.713 21.88 127.343 21.88C127.463 21.88 127.763 21.925 128.243 22.015C128.753 22.105 129.128 22.12 129.368 22.06C128.258 22.66 126.443 25.48 123.923 30.52C125.333 28.78 126.608 27.4 127.748 26.38C128.918 25.33 130.313 24.37 131.933 23.5C133.553 22.6 134.738 22.15 135.488 22.15C135.668 22.15 135.833 22.18 135.983 22.24ZM151.146 24.805C150.606 25.345 149.841 26.575 148.851 28.495C147.861 30.385 147.261 31.81 147.051 32.77C146.871 33.7 146.781 34.465 146.781 35.065C146.781 35.635 147.006 35.92 147.456 35.92C148.026 35.92 148.731 35.395 149.571 34.345C150.801 32.815 152.016 30.82 153.216 28.36C153.336 28.09 153.471 27.94 153.621 27.91C153.861 27.82 153.981 27.91 153.981 28.18C153.981 28.33 153.936 28.51 153.846 28.72C151.086 34.3 148.761 37.09 146.871 37.09C146.001 37.09 145.296 36.67 144.756 35.83C144.486 35.38 144.351 34.78 144.351 34.03C144.351 33.28 144.501 32.365 144.801 31.285C142.401 35.155 140.331 37.09 138.591 37.09C138.111 37.09 137.676 36.94 137.286 36.64C136.386 36.01 135.936 34.93 135.936 33.4C135.936 30.46 137.211 27.475 139.761 24.445C141.201 22.765 142.971 21.67 145.071 21.16C145.641 21.01 146.181 20.935 146.691 20.935C148.071 20.935 149.241 21.415 150.201 22.375C150.501 22.705 150.591 23.02 150.471 23.32C150.351 23.62 150.096 23.74 149.706 23.68C149.376 22.6 148.656 22.06 147.546 22.06C146.256 22.06 144.666 23.08 142.776 25.12C141.696 26.32 140.691 27.73 139.761 29.35C138.591 31.3 138.006 32.86 138.006 34.03C138.006 35.2 138.381 35.785 139.131 35.785C140.931 35.785 143.286 33.025 146.196 27.505C146.766 26.395 147.246 25.645 147.636 25.255C148.026 24.835 148.521 24.625 149.121 24.625C149.241 24.625 149.541 24.67 150.021 24.76C150.531 24.85 150.906 24.865 151.146 24.805ZM195.769 9.55C189.709 6.55 184.834 5.05 181.144 5.05C177.454 5.05 174.364 6.1 171.874 8.2C169.504 10.21 168.319 12.37 168.319 14.68C168.319 15.88 168.754 16.75 169.624 17.29C170.794 17.95 171.904 18.28 172.954 18.28C173.344 18.28 173.734 18.235 174.124 18.145C175.504 17.815 176.674 17.26 177.634 16.48C178.594 15.7 179.074 15.07 179.074 14.59C179.074 14.11 179.209 13.78 179.479 13.6C179.779 13.42 179.929 13.48 179.929 13.78C179.929 13.96 179.884 14.17 179.794 14.41C179.164 16.54 177.694 17.995 175.384 18.775C174.394 19.105 173.374 19.27 172.324 19.27C171.274 19.27 170.239 18.955 169.219 18.325C167.299 17.245 166.339 15.595 166.339 13.375C166.339 10.705 167.569 8.275 170.029 6.085C172.489 3.895 175.489 2.8 179.029 2.8C180.769 2.8 182.524 3.055 184.294 3.565C188.734 4.765 192.754 6.505 196.354 8.785C197.284 7.765 198.244 7.255 199.234 7.255C200.344 7.255 200.914 7.63 200.944 8.38C200.974 8.71 200.869 8.86 200.629 8.83C200.479 8.8 200.314 8.68 200.134 8.47C199.894 8.38 199.669 8.335 199.459 8.335C198.799 8.335 198.124 8.665 197.434 9.325C199.654 10.435 202.264 11.38 205.264 12.16C206.434 12.43 207.364 12.565 208.054 12.565C208.744 12.565 209.269 12.55 209.629 12.52C210.949 12.37 211.804 11.875 212.194 11.035C212.404 10.585 212.584 10.315 212.734 10.225C212.914 10.105 213.019 10.15 213.049 10.36C213.049 10.45 213.049 10.57 213.049 10.72C213.049 11.95 212.419 12.88 211.159 13.51C210.379 13.9 209.644 14.095 208.954 14.095C208.264 14.095 207.514 14.035 206.704 13.915C205.894 13.765 204.844 13.48 203.554 13.06C202.264 12.64 201.214 12.25 200.404 11.89C199.594 11.53 198.799 11.155 198.019 10.765L196.759 10.135C195.199 11.905 193.534 14.95 191.764 19.27C191.194 20.71 190.864 21.535 190.774 21.745C192.514 21.985 194.119 22.105 195.589 22.105C197.059 22.105 198.214 22.09 199.054 22.06C199.924 22 200.374 22.09 200.404 22.33C200.434 22.99 198.199 23.32 193.699 23.32C192.259 23.32 191.104 23.26 190.234 23.14C188.374 28.24 186.514 32.02 184.654 34.48C183.874 35.5 182.899 36.565 181.729 37.675C180.559 38.815 179.314 39.73 177.994 40.42C175.024 42.04 171.709 42.85 168.049 42.85C164.389 42.85 161.284 42.04 158.734 40.42C154.864 38.02 152.929 34.555 152.929 30.025C152.929 28.495 153.184 26.86 153.694 25.12C154.054 23.98 154.714 22.975 155.674 22.105C156.664 21.235 157.489 20.71 158.149 20.53C158.809 20.32 159.109 20.275 159.049 20.395C159.019 20.515 158.509 20.92 157.519 21.61C155.569 23.02 154.414 24.76 154.054 26.83C153.904 27.58 153.829 28.45 153.829 29.44C153.829 30.43 154.054 31.51 154.504 32.68C155.734 35.86 158.284 38.2 162.154 39.7C163.984 40.39 165.949 40.735 168.049 40.735C170.149 40.735 172.234 40.315 174.304 39.475C176.374 38.635 178.294 37.375 180.064 35.695C183.514 32.425 186.364 28.195 188.614 23.005L185.734 22.96C182.224 22.96 179.914 23.77 178.804 25.39C178.534 25.72 178.309 25.81 178.129 25.66C177.979 25.48 177.964 25.255 178.084 24.985C178.744 23.545 179.674 22.51 180.874 21.88C182.074 21.25 183.259 20.935 184.429 20.935C185.629 20.935 187.234 21.07 189.244 21.34C190.174 19.06 191.344 16.69 192.754 14.23C194.194 11.77 195.199 10.21 195.769 9.55ZM214.032 24.805C213.492 25.345 212.727 26.575 211.737 28.495C210.747 30.385 210.147 31.81 209.937 32.77C209.757 33.7 209.667 34.465 209.667 35.065C209.667 35.635 209.892 35.92 210.342 35.92C210.912 35.92 211.617 35.395 212.457 34.345C213.687 32.815 214.902 30.82 216.102 28.36C216.222 28.09 216.357 27.94 216.507 27.91C216.747 27.82 216.867 27.91 216.867 28.18C216.867 28.33 216.822 28.51 216.732 28.72C213.972 34.3 211.647 37.09 209.757 37.09C208.887 37.09 208.182 36.67 207.642 35.83C207.372 35.38 207.237 34.78 207.237 34.03C207.237 33.28 207.387 32.365 207.687 31.285C205.287 35.155 203.217 37.09 201.477 37.09C200.997 37.09 200.562 36.94 200.172 36.64C199.272 36.01 198.822 34.93 198.822 33.4C198.822 30.46 200.097 27.475 202.647 24.445C204.087 22.765 205.857 21.67 207.957 21.16C208.527 21.01 209.067 20.935 209.577 20.935C210.957 20.935 212.127 21.415 213.087 22.375C213.387 22.705 213.477 23.02 213.357 23.32C213.237 23.62 212.982 23.74 212.592 23.68C212.262 22.6 211.542 22.06 210.432 22.06C209.142 22.06 207.552 23.08 205.662 25.12C204.582 26.32 203.577 27.73 202.647 29.35C201.477 31.3 200.892 32.86 200.892 34.03C200.892 35.2 201.267 35.785 202.017 35.785C203.817 35.785 206.172 33.025 209.082 27.505C209.652 26.395 210.132 25.645 210.522 25.255C210.912 24.835 211.407 24.625 212.007 24.625C212.127 24.625 212.427 24.67 212.907 24.76C213.417 24.85 213.792 24.865 214.032 24.805ZM208.795 50.95C207.505 50.95 206.53 50.56 205.87 49.78C205.18 49 204.835 48.205 204.835 47.395C204.835 46.585 205.09 45.805 205.6 45.055C206.08 44.305 206.695 43.645 207.445 43.075C208.165 42.535 208.87 42.07 209.56 41.68C210.25 41.32 211.225 40.9 212.485 40.42C213.715 39.97 214.675 39.625 215.365 39.385C216.055 39.175 217.135 38.845 218.605 38.395C220.075 37.945 221.05 37.645 221.53 37.495C222.07 35.755 222.34 34.435 222.34 33.535C222.34 31.975 221.905 31.195 221.035 31.195C220.915 31.195 220.795 31.21 220.675 31.24C219.235 31.99 218.38 32.26 218.11 32.05C217.96 31.93 217.9 31.78 217.93 31.6C217.96 31.42 218.095 31.3 218.335 31.24C220.375 30.61 222.055 29.29 223.375 27.28C223.765 26.68 223.96 26.125 223.96 25.615C223.96 25.105 223.75 24.61 223.33 24.13C222.91 23.65 222.46 23.41 221.98 23.41C220.48 23.41 219.235 24.265 218.245 25.975C217.405 27.385 216.61 28.885 215.86 30.475C215.68 30.895 215.485 31.045 215.275 30.925C215.065 30.775 215.08 30.46 215.32 29.98C216.91 26.86 217.795 25.15 217.975 24.85C219.325 22.39 221.17 21.16 223.51 21.16C224.56 21.16 225.355 21.55 225.895 22.33C226.195 22.75 226.345 23.38 226.345 24.22C226.345 25.03 225.94 26.035 225.13 27.235C224.35 28.405 223.285 29.395 221.935 30.205C221.965 30.205 221.995 30.205 222.025 30.205C223.975 30.205 224.98 31.18 225.04 33.13C225.04 34.27 224.875 35.365 224.545 36.415C226.825 35.965 229.135 33.28 231.475 28.36C231.595 28.09 231.745 27.94 231.925 27.91C232.135 27.82 232.24 27.91 232.24 28.18C232.24 28.51 231.85 29.38 231.07 30.79C230.29 32.2 229.555 33.37 228.865 34.3C227.605 36.1 226.075 37.18 224.275 37.54C223.105 40.75 221.365 43.495 219.055 45.775C216.775 48.085 214.045 49.705 210.865 50.635C210.115 50.845 209.425 50.95 208.795 50.95ZM206.68 46.495C206.5 47.065 206.41 47.65 206.41 48.25C206.41 48.85 206.635 49.285 207.085 49.555C207.535 49.825 207.955 49.96 208.345 49.96C209.785 49.96 211.375 49.405 213.115 48.295C214.825 47.215 216.4 45.835 217.84 44.155C219.28 42.475 220.375 40.63 221.125 38.62C220.495 38.83 219.505 39.13 218.155 39.52C216.805 39.91 215.74 40.225 214.96 40.465C212.86 41.125 211.195 41.815 209.965 42.535C208.345 43.465 207.25 44.785 206.68 46.495ZM237.496 18.955C237.496 20.305 236.641 21.58 234.931 22.78C235.531 22.81 236.326 22.825 237.316 22.825C238.336 22.825 239.611 22.75 241.141 22.6C241.201 22.69 241.231 22.93 241.231 23.32C241.231 23.71 241.051 24.295 240.691 25.075C240.331 25.825 240.001 26.485 239.701 27.055C239.431 27.595 239.161 28.12 238.891 28.63C238.651 29.11 238.366 29.71 238.036 30.43C237.736 31.15 237.481 31.81 237.271 32.41C236.521 34.69 236.641 35.83 237.631 35.83C238.891 35.83 240.751 33.325 243.211 28.315C243.421 27.925 243.586 27.775 243.706 27.865C243.856 27.955 243.931 28.075 243.931 28.225C243.931 28.345 243.736 28.81 243.346 29.62C242.956 30.4 242.536 31.21 242.086 32.05C241.636 32.89 240.931 33.865 239.971 34.975C238.831 36.355 237.736 37.045 236.686 37.045C235.516 37.045 234.706 36.34 234.256 34.93C234.166 34.66 234.121 34.255 234.121 33.715C234.121 33.175 234.286 32.455 234.616 31.555C234.976 30.655 235.531 29.56 236.281 28.27C237.031 26.98 237.451 26.23 237.541 26.02C237.631 25.78 237.676 25.555 237.676 25.345C237.676 24.415 236.476 23.92 234.076 23.86L233.536 25.3C231.646 30.25 229.831 33.565 228.091 35.245C227.791 35.515 227.641 35.425 227.641 34.975C227.641 34.885 227.671 34.78 227.731 34.66C229.411 32.44 230.866 29.815 232.096 26.785C233.326 23.755 234.181 20.875 234.661 18.145C234.841 17.215 235.261 16.75 235.921 16.75C236.581 16.75 237.061 17.17 237.361 18.01C237.451 18.28 237.496 18.595 237.496 18.955ZM241.536 34.39C241.536 33.1 242.091 31.54 243.201 29.71C242.721 29.71 242.586 29.47 242.796 28.99L243.606 27.415C244.626 25.465 245.466 23.815 246.126 22.465C246.426 21.835 247.011 21.52 247.881 21.52H250.626C249.546 22.3 248.451 23.815 247.341 26.065C246.261 28.285 245.421 30.04 244.821 31.33C244.221 32.59 243.921 33.55 243.921 34.21C243.921 34.87 244.026 35.335 244.236 35.605C244.476 35.875 244.791 36.01 245.181 36.01C245.751 36.01 246.546 35.41 247.566 34.21C249.156 32.35 251.391 28.435 254.271 22.465C254.601 21.835 255.186 21.52 256.026 21.52H258.456C257.796 22.03 257.271 22.555 256.881 23.095C256.521 23.635 256.011 24.595 255.351 25.975C253.551 29.575 252.546 31.96 252.336 33.13C252.246 33.55 252.201 33.94 252.201 34.3C252.201 35.26 252.531 35.77 253.191 35.83C254.811 35.83 256.806 33.325 259.176 28.315C259.356 27.895 259.536 27.73 259.716 27.82C259.896 27.91 259.986 28.03 259.986 28.18C259.986 28.33 259.851 28.675 259.581 29.215C259.311 29.755 259.041 30.28 258.771 30.79C258.531 31.3 258.141 32.005 257.601 32.905C257.091 33.775 256.611 34.465 256.161 34.975C254.991 36.295 253.836 36.955 252.696 36.955C251.586 36.955 250.821 36.46 250.401 35.47C250.221 35.02 250.131 34.45 250.131 33.76C250.131 33.07 250.281 32.215 250.581 31.195C248.391 35.035 246.366 36.955 244.506 36.955C242.886 36.955 241.941 36.28 241.671 34.93C241.581 34.78 241.536 34.6 241.536 34.39ZM261.67 28.315C261.64 28.435 261.505 28.855 261.265 29.575C261.025 30.265 260.815 30.94 260.635 31.6C260.485 32.23 260.41 32.875 260.41 33.535C260.41 34.165 260.56 34.765 260.86 35.335C261.16 35.875 261.64 36.145 262.3 36.145C263.38 36.145 264.43 35.425 265.45 33.985C266.47 32.515 267.55 30.655 268.69 28.405C268.93 27.985 269.155 27.82 269.365 27.91C269.515 28.03 269.545 28.195 269.455 28.405C269.365 28.585 269.17 29.005 268.87 29.665C268.6 30.295 268.39 30.745 268.24 31.015C268.12 31.255 267.88 31.705 267.52 32.365C267.19 32.995 266.89 33.475 266.62 33.805C266.38 34.105 266.035 34.51 265.585 35.02C265.165 35.5 264.76 35.86 264.37 36.1C263.32 36.76 262.33 37.09 261.4 37.09C260.47 37.09 259.75 36.895 259.24 36.505C258.73 36.085 258.415 35.65 258.295 35.2C258.205 34.72 258.16 34.3 258.16 33.94C258.16 33.58 258.175 33.115 258.205 32.545C258.295 31.585 258.475 30.655 258.745 29.755C259.045 28.855 259.21 28.345 259.24 28.225C259.93 25.735 260.905 23.02 262.165 20.08C263.455 17.14 264.535 14.935 265.405 13.465C266.305 11.965 267.01 10.945 267.52 10.405C268.54 9.325 269.545 8.785 270.535 8.785C271.225 8.785 271.69 9.28 271.93 10.27C271.96 10.45 271.975 10.675 271.975 10.945C271.975 11.965 271.615 13.255 270.895 14.815C268.315 20.545 265.24 25.045 261.67 28.315ZM262.03 26.875C263.56 25.315 265.075 23.35 266.575 20.98C268.075 18.61 269.17 16.6 269.86 14.95C270.58 13.27 270.94 12.13 270.94 11.53C270.94 10.93 270.835 10.63 270.625 10.63C270.325 10.63 269.755 11.23 268.915 12.43C268.075 13.6 266.935 15.73 265.495 18.82C264.085 21.88 262.93 24.565 262.03 26.875Z" fill="black"/>
</svg>
