<svg width="102" height="16" viewBox="0 0 102 16" fill="none" xmlns="http://www.w3.org/2000/svg">
<path d="M57.6201 2.84578C57.3181 2.42259 56.7966 1.47264 57.126 1.05836C57.4554 0.644086 58.1196 1.43144 58.4106 1.8769L58.707 2.42816C58.6082 1.9827 58.4402 0.988204 58.5588 0.573925C58.6774 0.159647 58.9705 0.267671 59.1023 0.373468C59.1846 0.468128 59.3921 0.761019 59.5634 1.1753C59.5964 0.818929 59.7512 0.0861454 60.1069 0.00596245C60.4626 -0.0742205 60.4857 0.674154 60.4528 1.05836C60.6174 0.7187 61.0259 0.0527359 61.3421 0.106191C61.7373 0.17301 61.6056 1.192 61.5562 1.30894C61.5167 1.40248 61.397 1.96042 61.3421 2.2277C61.5946 1.81008 62.2281 0.954794 62.742 0.874611C63.2558 0.794429 63.0768 1.50939 62.9231 1.8769C62.6267 2.30566 61.9646 3.2233 61.6879 3.46385C62.3851 3.12419 63.8915 2.52505 64.3395 2.84578C64.4108 2.87919 64.5503 2.98276 64.5371 3.12976C64.5239 3.27676 64.3999 3.41374 64.3395 3.46385C64.4932 3.41374 64.8368 3.38033 64.9818 3.64761C65.1267 3.91488 64.3724 4.33807 63.9771 4.51626C64.1858 4.53296 64.6293 4.61648 64.7347 4.81694C64.8401 5.0174 64.4273 5.25683 64.2077 5.35149C63.9881 5.39604 63.5292 5.48513 63.4501 5.48513H63.2196C63.2854 5.50184 63.4732 5.61209 63.6972 5.91946C64.0705 6.10878 64.7808 6.52751 64.6359 6.68788C64.4547 6.88834 64.4383 6.95515 64.2077 6.98856L64.0595 6.95515C64.1199 7.01084 64.2802 7.30261 64.4383 8.02426C64.4712 8.55325 64.5371 9.70142 64.5371 10.0622V12H64.0595C64.076 10.8975 64.0825 8.62563 63.9771 8.35836C63.9662 8.12449 63.8948 7.6033 63.6972 7.38948L63.4501 6.95515C63.2071 6.87297 62.7381 6.69195 62.49 6.52629C62.9574 6.91907 63.6972 7.5728 63.6972 7.70687C63.7411 7.76255 63.8223 7.94074 63.796 8.20801C63.7696 8.47529 63.1372 8.19688 62.8243 8.02426L62.2479 7.67346C62.5059 8.0521 62.9923 8.86952 62.8737 9.11007C62.7551 9.35062 62.4071 9.2103 62.2479 9.11007C61.9031 8.77511 61.2662 8.12031 61.1694 7.89042C61.2477 8.53283 61.303 9.70994 60.9468 9.76156C60.5779 9.81501 60.3759 9.21587 60.321 8.90961C60.2771 8.67575 60.1925 8.1579 60.2057 7.95744C60.1618 8.59222 59.929 9.86513 59.3493 9.87849C59.1462 9.91747 58.8355 9.57112 59.2176 7.87392C58.9925 8.38063 58.46 9.40408 58.1306 9.44417C57.8012 9.48426 57.7408 9.16019 57.7518 8.99314C57.7518 8.90405 57.7815 8.63232 57.9 8.25813C57.6859 8.45302 57.1952 8.81607 56.9448 8.70916C56.6945 8.60225 57.3017 7.81824 57.6365 7.43959L58.0812 6.90504C57.5981 7.34493 56.5364 8.20467 56.1543 8.12449C55.7722 8.04431 55.9183 7.63448 56.039 7.43959C56.1665 7.27407 56.421 6.9548 56.4882 6.91025C56.3817 6.93826 55.7051 7.06854 55.5285 7.03868C55.3309 7.00527 55.3144 6.80481 55.3144 6.72129C55.3144 6.63776 55.3967 6.4206 55.6932 6.28696C55.9896 6.15332 56.6978 5.68559 57.3895 5.46843C56.7856 5.48513 55.5054 5.42165 55.2156 5.0341C55.1607 4.99513 55.041 4.86372 55.0015 4.64989C54.962 4.43607 55.7206 4.34921 56.1049 4.3325H56.5002C56.1543 4.22671 55.4 3.89818 55.1497 3.43044C54.8994 2.96271 55.5285 2.97941 55.8743 3.04623L56.1049 3.11305C55.9732 2.96271 55.6965 2.61525 55.6438 2.42816C55.5911 2.24106 55.7755 2.13861 55.8743 2.11077C56.0226 2.11633 56.4145 2.1709 56.7966 2.34463C57.1787 2.51836 57.5048 2.75112 57.6201 2.84578Z" fill="black"/>
<path d="M6.86719 9.55078C6.86719 9.88672 6.81055 10.2148 6.69727 10.5352C6.58789 10.8555 6.40234 11.1426 6.14062 11.3965C5.88281 11.6504 5.54102 11.8535 5.11523 12.0059C4.68945 12.1621 4.16406 12.2402 3.53906 12.2402C3.19531 12.2402 2.86328 12.2051 2.54297 12.1348C2.22266 12.0684 1.9375 11.9941 1.6875 11.9121C1.39453 11.8145 1.11914 11.7031 0.861328 11.5781L0.978516 10.6992C1.20898 10.8203 1.45508 10.9297 1.7168 11.0273C1.93945 11.1094 2.19531 11.1836 2.48438 11.25C2.77344 11.3164 3.07227 11.3496 3.38086 11.3496C3.68945 11.3496 3.98438 11.3262 4.26562 11.2793C4.54688 11.2285 4.79297 11.1387 5.00391 11.0098C5.21484 10.8809 5.38281 10.7031 5.50781 10.4766C5.63281 10.25 5.69531 9.95898 5.69531 9.60352C5.69531 9.38086 5.66016 9.17969 5.58984 9C5.52344 8.82031 5.42578 8.66016 5.29688 8.51953C5.16797 8.375 5.01172 8.25 4.82812 8.14453C4.64844 8.03516 4.44531 7.93945 4.21875 7.85742L2.55469 7.27148C2.28906 7.17773 2.0293 7.06641 1.77539 6.9375C1.52539 6.80469 1.30273 6.64648 1.10742 6.46289C0.912109 6.27539 0.753906 6.06055 0.632812 5.81836C0.515625 5.57617 0.457031 5.29688 0.457031 4.98047C0.457031 4.54688 0.53125 4.17773 0.679688 3.87305C0.828125 3.56836 1.03516 3.32031 1.30078 3.12891C1.57031 2.93359 1.88867 2.79102 2.25586 2.70117C2.62695 2.61133 3.03516 2.56641 3.48047 2.56641C3.76562 2.56641 4.03906 2.58789 4.30078 2.63086C4.5625 2.66992 4.81055 2.72461 5.04492 2.79492C5.2832 2.86523 5.50391 2.94531 5.70703 3.03516C5.91406 3.12109 6.10156 3.21094 6.26953 3.30469L6.09375 4.16602C5.94922 4.08008 5.7832 3.99609 5.5957 3.91406C5.41211 3.82812 5.21484 3.75195 5.00391 3.68555C4.79297 3.61914 4.57227 3.56445 4.3418 3.52148C4.11523 3.47852 3.88672 3.45703 3.65625 3.45703C3.29297 3.45703 2.98242 3.48438 2.72461 3.53906C2.4707 3.59375 2.26172 3.67969 2.09766 3.79688C1.9375 3.91406 1.81836 4.06445 1.74023 4.24805C1.66602 4.43164 1.62891 4.65234 1.62891 4.91016C1.62891 5.52344 2.00586 5.96094 2.75977 6.22266L4.59375 6.86133C4.89844 6.9668 5.1875 7.09961 5.46094 7.25977C5.73828 7.41602 5.98047 7.60352 6.1875 7.82227C6.39844 8.04102 6.56445 8.29297 6.68555 8.57812C6.80664 8.86328 6.86719 9.1875 6.86719 9.55078ZM7.66992 5.15039H8.73633L10.8164 10.541L12.5801 5.15039H13.7227L11.1621 12.2168C11.0527 12.5176 10.9316 12.7832 10.7988 13.0137C10.6699 13.248 10.5352 13.4512 10.3945 13.623C10.2539 13.7949 10.1133 13.9414 9.97266 14.0625C9.83203 14.1836 9.69531 14.2832 9.5625 14.3613C9.25391 14.5488 8.93945 14.6582 8.61914 14.6895L8.32031 13.957C8.55078 13.9023 8.76562 13.8281 8.96484 13.7344C9.16406 13.6445 9.3457 13.5195 9.50977 13.3594C9.67383 13.1992 9.82227 12.998 9.95508 12.7559C10.0918 12.5137 10.2109 12.2168 10.3125 11.8652L7.66992 5.15039ZM17.5664 5.83008C17.3906 5.83008 17.2051 5.8457 17.0098 5.87695C16.8184 5.9082 16.627 5.95508 16.4355 6.01758C16.248 6.07617 16.0645 6.15039 15.8848 6.24023C15.709 6.32617 15.5488 6.42578 15.4043 6.53906L15.0059 5.76562C15.2285 5.64453 15.4355 5.53906 15.627 5.44922C15.8184 5.35547 16.0117 5.27734 16.207 5.21484C16.4062 5.15234 16.6133 5.10547 16.8281 5.07422C17.0469 5.04297 17.293 5.02734 17.5664 5.02734C18.1562 5.02734 18.627 5.0918 18.9785 5.2207C19.334 5.34961 19.6035 5.54883 19.7871 5.81836C19.9746 6.08789 20.0957 6.43164 20.1504 6.84961C20.209 7.26758 20.2383 7.76562 20.2383 8.34375V12H19.418L19.2539 10.957C18.9648 11.3633 18.6211 11.6582 18.2227 11.8418C17.8242 12.0254 17.377 12.1172 16.8809 12.1172C16.5293 12.1172 16.2109 12.0723 15.9258 11.9824C15.6445 11.8926 15.4043 11.7598 15.2051 11.584C15.0059 11.4043 14.8516 11.1816 14.7422 10.916C14.6367 10.6504 14.584 10.3418 14.584 9.99023C14.584 9.65039 14.6484 9.3457 14.7773 9.07617C14.9062 8.80664 15.0801 8.57812 15.2988 8.39062C15.5176 8.20312 15.7715 8.06055 16.0605 7.96289C16.3496 7.86133 16.6543 7.81055 16.9746 7.81055C17.2949 7.81055 17.5859 7.82617 17.8477 7.85742C18.1133 7.88867 18.3398 7.92383 18.5273 7.96289C18.7188 7.99805 18.8672 8.03125 18.9727 8.0625L19.125 8.10352C19.125 7.70117 19.1172 7.35547 19.1016 7.06641C19.0859 6.77734 19.0293 6.54297 18.9316 6.36328C18.834 6.17969 18.6797 6.04492 18.4688 5.95898C18.2578 5.87305 17.957 5.83008 17.5664 5.83008ZM17.1562 11.3145C17.5117 11.3145 17.8477 11.2383 18.1641 11.0859C18.4844 10.9336 18.8047 10.709 19.125 10.4121V8.66602C18.9609 8.64258 18.8008 8.62305 18.6445 8.60742C18.5078 8.5918 18.3613 8.57812 18.2051 8.56641C18.0488 8.55078 17.9023 8.54297 17.7656 8.54297C17.4844 8.54297 17.2188 8.55859 16.9688 8.58984C16.7188 8.61719 16.5 8.67969 16.3125 8.77734C16.125 8.875 15.9766 9.01562 15.8672 9.19922C15.7578 9.38281 15.7031 9.62695 15.7031 9.93164C15.7031 10.2051 15.7383 10.4316 15.8086 10.6113C15.8789 10.7871 15.9766 10.9277 16.1016 11.0332C16.2305 11.1387 16.3828 11.2129 16.5586 11.2559C16.7383 11.2949 16.9375 11.3145 17.1562 11.3145ZM21.8027 5.93555V5.15039H26.3262V6.11719L22.6582 11.2031H26.3262V12H21.627V11.0273L25.3652 5.93555H21.8027ZM31.8457 6.16992L30.3691 12H29.1621L27.2871 5.15039H28.3652L29.7363 11.2734L31.248 5.15039H32.4316L33.8965 11.2852L35.3027 5.15039H36.3926L34.5176 12H33.3105L31.8457 6.16992ZM37.6758 12V5.15039H38.7422V12H37.6758ZM37.5762 3.43359C37.5762 3.33984 37.5918 3.25391 37.623 3.17578C37.6582 3.09375 37.7051 3.02148 37.7637 2.95898C37.8223 2.89648 37.8906 2.84766 37.9688 2.8125C38.0469 2.77734 38.1309 2.75977 38.2207 2.75977C38.3145 2.75977 38.4004 2.7793 38.4785 2.81836C38.5566 2.85352 38.625 2.90234 38.6836 2.96484C38.7422 3.02734 38.7871 3.09961 38.8184 3.18164C38.8496 3.26367 38.8652 3.34766 38.8652 3.43359C38.8652 3.52734 38.8477 3.61523 38.8125 3.69727C38.7812 3.77539 38.7363 3.8457 38.6777 3.9082C38.6191 3.9707 38.5508 4.01953 38.4727 4.05469C38.3945 4.08984 38.3105 4.10742 38.2207 4.10742C38.127 4.10742 38.041 4.08984 37.9629 4.05469C37.8848 4.01562 37.8164 3.96484 37.7578 3.90234C37.6992 3.83984 37.6543 3.76953 37.623 3.69141C37.5918 3.60938 37.5762 3.52344 37.5762 3.43359ZM41.5547 6.24609C41.6719 6.10156 41.8281 5.95703 42.0234 5.8125C42.2188 5.66797 42.4316 5.53711 42.6621 5.41992C42.8965 5.30273 43.1387 5.20898 43.3887 5.13867C43.6426 5.06445 43.8848 5.02734 44.1152 5.02734C44.5254 5.02734 44.8711 5.08984 45.1523 5.21484C45.4375 5.33594 45.6699 5.51367 45.8496 5.74805C46.0293 5.97852 46.1582 6.26172 46.2363 6.59766C46.3184 6.93359 46.3594 7.31445 46.3594 7.74023V12H45.2461V7.74023C45.2461 7.44336 45.2227 7.17773 45.1758 6.94336C45.1289 6.70508 45.0527 6.50391 44.9473 6.33984C44.8418 6.17578 44.7051 6.05078 44.5371 5.96484C44.3691 5.875 44.1621 5.83008 43.916 5.83008C43.7285 5.83008 43.5234 5.86719 43.3008 5.94141C43.0781 6.01562 42.8633 6.10547 42.6562 6.21094C42.4492 6.31641 42.2598 6.42773 42.0879 6.54492C41.916 6.66211 41.7891 6.76172 41.707 6.84375V12H40.5938V5.15039H41.4141L41.5547 6.24609ZM50.7539 5.83008C50.5781 5.83008 50.3926 5.8457 50.1973 5.87695C50.0059 5.9082 49.8145 5.95508 49.623 6.01758C49.4355 6.07617 49.252 6.15039 49.0723 6.24023C48.8965 6.32617 48.7363 6.42578 48.5918 6.53906L48.1934 5.76562C48.416 5.64453 48.623 5.53906 48.8145 5.44922C49.0059 5.35547 49.1992 5.27734 49.3945 5.21484C49.5938 5.15234 49.8008 5.10547 50.0156 5.07422C50.2344 5.04297 50.4805 5.02734 50.7539 5.02734C51.3438 5.02734 51.8145 5.0918 52.166 5.2207C52.5215 5.34961 52.791 5.54883 52.9746 5.81836C53.1621 6.08789 53.2832 6.43164 53.3379 6.84961C53.3965 7.26758 53.4258 7.76562 53.4258 8.34375V12H52.6055L52.4414 10.957C52.1523 11.3633 51.8086 11.6582 51.4102 11.8418C51.0117 12.0254 50.5645 12.1172 50.0684 12.1172C49.7168 12.1172 49.3984 12.0723 49.1133 11.9824C48.832 11.8926 48.5918 11.7598 48.3926 11.584C48.1934 11.4043 48.0391 11.1816 47.9297 10.916C47.8242 10.6504 47.7715 10.3418 47.7715 9.99023C47.7715 9.65039 47.8359 9.3457 47.9648 9.07617C48.0938 8.80664 48.2676 8.57812 48.4863 8.39062C48.7051 8.20312 48.959 8.06055 49.248 7.96289C49.5371 7.86133 49.8418 7.81055 50.1621 7.81055C50.4824 7.81055 50.7734 7.82617 51.0352 7.85742C51.3008 7.88867 51.5273 7.92383 51.7148 7.96289C51.9062 7.99805 52.0547 8.03125 52.1602 8.0625L52.3125 8.10352C52.3125 7.70117 52.3047 7.35547 52.2891 7.06641C52.2734 6.77734 52.2168 6.54297 52.1191 6.36328C52.0215 6.17969 51.8672 6.04492 51.6562 5.95898C51.4453 5.87305 51.1445 5.83008 50.7539 5.83008ZM50.3438 11.3145C50.6992 11.3145 51.0352 11.2383 51.3516 11.0859C51.6719 10.9336 51.9922 10.709 52.3125 10.4121V8.66602C52.1484 8.64258 51.9883 8.62305 51.832 8.60742C51.6953 8.5918 51.5488 8.57812 51.3926 8.56641C51.2363 8.55078 51.0898 8.54297 50.9531 8.54297C50.6719 8.54297 50.4062 8.55859 50.1562 8.58984C49.9062 8.61719 49.6875 8.67969 49.5 8.77734C49.3125 8.875 49.1641 9.01562 49.0547 9.19922C48.9453 9.38281 48.8906 9.62695 48.8906 9.93164C48.8906 10.2051 48.9258 10.4316 48.9961 10.6113C49.0664 10.7871 49.1641 10.9277 49.2891 11.0332C49.418 11.1387 49.5703 11.2129 49.7461 11.2559C49.9258 11.2949 50.125 11.3145 50.3438 11.3145Z" fill="black"/>
<path d="M69.0332 12H67.8965V2.74805H73.293V3.58594H69.0332V6.84961H72.9355V7.52344H69.0332V12ZM77.1602 5.83008C76.9844 5.83008 76.7988 5.8457 76.6035 5.87695C76.4121 5.9082 76.2207 5.95508 76.0293 6.01758C75.8418 6.07617 75.6582 6.15039 75.4785 6.24023C75.3027 6.32617 75.1426 6.42578 74.998 6.53906L74.5996 5.76562C74.8223 5.64453 75.0293 5.53906 75.2207 5.44922C75.4121 5.35547 75.6055 5.27734 75.8008 5.21484C76 5.15234 76.207 5.10547 76.4219 5.07422C76.6406 5.04297 76.8867 5.02734 77.1602 5.02734C77.75 5.02734 78.2207 5.0918 78.5723 5.2207C78.9277 5.34961 79.1973 5.54883 79.3809 5.81836C79.5684 6.08789 79.6895 6.43164 79.7441 6.84961C79.8027 7.26758 79.832 7.76562 79.832 8.34375V12H79.0117L78.8477 10.957C78.5586 11.3633 78.2148 11.6582 77.8164 11.8418C77.418 12.0254 76.9707 12.1172 76.4746 12.1172C76.123 12.1172 75.8047 12.0723 75.5195 11.9824C75.2383 11.8926 74.998 11.7598 74.7988 11.584C74.5996 11.4043 74.4453 11.1816 74.3359 10.916C74.2305 10.6504 74.1777 10.3418 74.1777 9.99023C74.1777 9.65039 74.2422 9.3457 74.3711 9.07617C74.5 8.80664 74.6738 8.57812 74.8926 8.39062C75.1113 8.20312 75.3652 8.06055 75.6543 7.96289C75.9434 7.86133 76.248 7.81055 76.5684 7.81055C76.8887 7.81055 77.1797 7.82617 77.4414 7.85742C77.707 7.88867 77.9336 7.92383 78.1211 7.96289C78.3125 7.99805 78.4609 8.03125 78.5664 8.0625L78.7188 8.10352C78.7188 7.70117 78.7109 7.35547 78.6953 7.06641C78.6797 6.77734 78.623 6.54297 78.5254 6.36328C78.4277 6.17969 78.2734 6.04492 78.0625 5.95898C77.8516 5.87305 77.5508 5.83008 77.1602 5.83008ZM76.75 11.3145C77.1055 11.3145 77.4414 11.2383 77.7578 11.0859C78.0781 10.9336 78.3984 10.709 78.7188 10.4121V8.66602C78.5547 8.64258 78.3945 8.62305 78.2383 8.60742C78.1016 8.5918 77.9551 8.57812 77.7988 8.56641C77.6426 8.55078 77.4961 8.54297 77.3594 8.54297C77.0781 8.54297 76.8125 8.55859 76.5625 8.58984C76.3125 8.61719 76.0938 8.67969 75.9062 8.77734C75.7188 8.875 75.5703 9.01562 75.4609 9.19922C75.3516 9.38281 75.2969 9.62695 75.2969 9.93164C75.2969 10.2051 75.332 10.4316 75.4023 10.6113C75.4727 10.7871 75.5703 10.9277 75.6953 11.0332C75.8242 11.1387 75.9766 11.2129 76.1523 11.2559C76.332 11.2949 76.5312 11.3145 76.75 11.3145ZM81.3965 5.93555V5.15039H85.9199V6.11719L82.252 11.2031H85.9199V12H81.2207V11.0273L84.959 5.93555H81.3965ZM88.4746 6.27539C88.6074 6.11133 88.7422 5.95312 88.8789 5.80078C89.0156 5.64844 89.1582 5.51562 89.3066 5.40234C89.459 5.28906 89.6211 5.19922 89.793 5.13281C89.9648 5.0625 90.1543 5.02734 90.3613 5.02734C90.5801 5.02734 90.7754 5.05078 90.9473 5.09766V5.98828C90.9395 5.98438 90.918 5.98047 90.8828 5.97656C90.8477 5.97266 90.8027 5.9707 90.748 5.9707C90.6934 5.9668 90.6309 5.96484 90.5605 5.96484C90.4902 5.96484 90.4199 5.96484 90.3496 5.96484C90.1855 5.96484 90.0234 5.99219 89.8633 6.04688C89.7031 6.10156 89.5469 6.17383 89.3945 6.26367C89.2461 6.34961 89.1016 6.44922 88.9609 6.5625C88.8242 6.67188 88.6953 6.78516 88.5742 6.90234V12H87.4609V5.15039H88.2988L88.4746 6.27539ZM93.2266 9.41016C93.2266 9.75 93.2559 10.041 93.3145 10.2832C93.377 10.5215 93.4648 10.7168 93.5781 10.8691C93.6953 11.0215 93.8379 11.1348 94.0059 11.209C94.1738 11.2793 94.3672 11.3145 94.5859 11.3145C94.7695 11.3145 94.9473 11.2988 95.1191 11.2676C95.291 11.2363 95.4609 11.1836 95.6289 11.1094C95.7969 11.0352 95.9648 10.9414 96.1328 10.8281C96.3008 10.7109 96.4766 10.5664 96.6602 10.3945V5.15039H97.7734V12H96.9473L96.7891 10.9688C96.6797 11.0898 96.5508 11.2188 96.4023 11.3555C96.2578 11.4883 96.0938 11.6113 95.9102 11.7246C95.7266 11.8379 95.5234 11.9316 95.3008 12.0059C95.0781 12.0801 94.8359 12.1172 94.5742 12.1172C94.1836 12.1172 93.8359 12.0664 93.5312 11.9648C93.2266 11.8633 92.9688 11.7031 92.7578 11.4844C92.5469 11.2656 92.3867 10.9863 92.2773 10.6465C92.168 10.3027 92.1133 9.89062 92.1133 9.41016V5.15039H93.2266V9.41016ZM100.645 12H99.5312V2.74805L100.645 2.54297V12Z" fill="black"/>
</svg>
