<svg width="50" height="50" viewBox="0 0 50 50" fill="none" xmlns="http://www.w3.org/2000/svg">
<path d="M38.5 6C38.3674 6 38.2402 6.05268 38.1464 6.14645C38.0527 6.24022 38 6.36739 38 6.5C38 6.63261 38.0527 6.75979 38.1464 6.85355C38.2402 6.94732 38.3674 7 38.5 7C38.6326 7 38.7598 6.94732 38.8536 6.85355C38.9473 6.75979 39 6.63261 39 6.5C39 6.36739 38.9473 6.24022 38.8536 6.14645C38.7598 6.05268 38.6326 6 38.5 6Z" fill="#F1BC19"/>
<path d="M25 6.5C20.0935 6.5 15.3879 8.4491 11.9185 11.9185C8.4491 15.3879 6.5 20.0935 6.5 25C6.5 29.9065 8.4491 34.6121 11.9185 38.0815C15.3879 41.5509 20.0935 43.5 25 43.5C29.9065 43.5 34.6121 41.5509 38.0815 38.0815C41.5509 34.6121 43.5 29.9065 43.5 25C43.5 20.0935 41.5509 15.3879 38.0815 11.9185C34.6121 8.4491 29.9065 6.5 25 6.5V6.5Z" fill="#E6EDB7"/>
<path d="M41.499 5.49951C40.9686 5.49951 40.4599 5.71023 40.0848 6.0853C39.7097 6.46037 39.499 6.96908 39.499 7.49951C39.499 8.02994 39.7097 8.53865 40.0848 8.91372C40.4599 9.2888 40.9686 9.49951 41.499 9.49951C42.0295 9.49951 42.5382 9.2888 42.9132 8.91372C43.2883 8.53865 43.499 8.02994 43.499 7.49951C43.499 6.96908 43.2883 6.46037 42.9132 6.0853C42.5382 5.71023 42.0295 5.49951 41.499 5.49951V5.49951Z" fill="#F1BC19"/>
<path d="M43.5 11C43.2348 11 42.9804 11.1054 42.7929 11.2929C42.6054 11.4804 42.5 11.7348 42.5 12C42.5 12.2652 42.6054 12.5196 42.7929 12.7071C42.9804 12.8946 43.2348 13 43.5 13C43.7652 13 44.0196 12.8946 44.2071 12.7071C44.3946 12.5196 44.5 12.2652 44.5 12C44.5 11.7348 44.3946 11.4804 44.2071 11.2929C44.0196 11.1054 43.7652 11 43.5 11Z" fill="#88AE45"/>
<path d="M40.5 37C40.2348 37 39.9804 37.1053 39.7929 37.2929C39.6054 37.4804 39.5 37.7348 39.5 38C39.5 38.2652 39.6054 38.5196 39.7929 38.7071C39.9804 38.8946 40.2348 39 40.5 39C40.7652 39 41.0196 38.8946 41.2071 38.7071C41.3946 38.5196 41.5 38.2652 41.5 38C41.5 37.7348 41.3946 37.4804 41.2071 37.2929C41.0196 37.1053 40.7652 37 40.5 37ZM7.5 29.5C6.96957 29.5 6.46086 29.7107 6.08579 30.0858C5.71071 30.4609 5.5 30.9696 5.5 31.5C5.5 32.0304 5.71071 32.5391 6.08579 32.9142C6.46086 33.2893 6.96957 33.5 7.5 33.5C8.03043 33.5 8.53914 33.2893 8.91421 32.9142C9.28929 32.5391 9.5 32.0304 9.5 31.5C9.5 30.9696 9.28929 30.4609 8.91421 30.0858C8.53914 29.7107 8.03043 29.5 7.5 29.5Z" fill="#FBCD59"/>
<path d="M12.499 42.5C12.2338 42.5 11.9795 42.6054 11.7919 42.7929C11.6044 42.9804 11.499 43.2348 11.499 43.5C11.499 43.7652 11.6044 44.0196 11.7919 44.2071C11.9795 44.3946 12.2338 44.5 12.499 44.5C12.7642 44.5 13.0186 44.3946 13.2061 44.2071C13.3937 44.0196 13.499 43.7652 13.499 43.5C13.499 43.2348 13.3937 42.9804 13.2061 42.7929C13.0186 42.6054 12.7642 42.5 12.499 42.5Z" fill="#88AE45"/>
<path d="M9.24902 24.5C8.9175 24.5 8.59956 24.6317 8.36514 24.8661C8.13072 25.1005 7.99902 25.4185 7.99902 25.75C7.99902 26.0815 8.13072 26.3995 8.36514 26.6339C8.59956 26.8683 8.9175 27 9.24902 27C9.58054 27 9.89849 26.8683 10.1329 26.6339C10.3673 26.3995 10.499 26.0815 10.499 25.75C10.499 25.4185 10.3673 25.1005 10.1329 24.8661C9.89849 24.6317 9.58054 24.5 9.24902 24.5ZM39.749 16C39.5501 16 39.3593 16.079 39.2187 16.2197C39.078 16.3603 38.999 16.5511 38.999 16.75C38.999 16.9489 39.078 17.1397 39.2187 17.2803C39.3593 17.421 39.5501 17.5 39.749 17.5C39.9479 17.5 40.1387 17.421 40.2794 17.2803C40.42 17.1397 40.499 16.9489 40.499 16.75C40.499 16.5511 40.42 16.3603 40.2794 16.2197C40.1387 16.079 39.9479 16 39.749 16Z" fill="white"/>
<path d="M17.4996 36.1491C15.4996 36.1491 13.8496 34.4991 13.8496 32.4991V17.4991C13.8496 15.4991 15.4996 13.8491 17.4996 13.8491H32.4996C34.4996 13.8491 36.1496 15.4991 36.1496 17.4991V32.4991C36.1496 34.4991 34.4996 36.1491 32.4996 36.1491H17.4996Z" fill="#73B2E5"/>
<path d="M32.501 14.1995C34.301 14.1995 35.801 15.6995 35.801 17.4995V32.4995C35.801 34.2995 34.301 35.7995 32.501 35.7995H17.501C15.701 35.7995 14.201 34.2995 14.201 32.4995V17.4995C14.201 15.6995 15.701 14.1995 17.501 14.1995H32.501ZM32.501 13.4995H17.501C15.301 13.4995 13.501 15.2995 13.501 17.4995V32.4995C13.501 34.6995 15.301 36.4995 17.501 36.4995H32.501C34.701 36.4995 36.501 34.6995 36.501 32.4995V17.4995C36.501 15.2995 34.701 13.4995 32.501 13.4995Z" fill="#472B29"/>
<path d="M34.25 23.95V24.85V32C34.25 33.25 33.25 34.25 32 34.25H18C16.75 34.25 15.75 33.25 15.75 32V18C15.75 16.75 16.75 15.75 18 15.75H30.7H32C33.25 15.75 34.25 16.75 34.25 18V19.7V20.7V21.2V21.75V23.2V23.95Z" fill="#FDFCEE"/>
<path d="M34.249 23.7C34.099 23.7 33.999 23.6 33.999 23.45V21.5C33.999 21.35 34.099 21.25 34.249 21.25C34.399 21.25 34.499 21.35 34.499 21.5V23.45C34.499 23.6 34.399 23.7 34.249 23.7ZM34.249 20.25C34.099 20.25 33.999 20.15 33.999 20V19C33.999 18.85 34.099 18.75 34.249 18.75C34.399 18.75 34.499 18.85 34.499 19V20C34.499 20.15 34.399 20.25 34.249 20.25Z" fill="#472B29"/>
<path d="M32 34.5H18C16.6 34.5 15.5 33.4 15.5 32V18C15.5 16.6 16.6 15.5 18 15.5H30.7C30.85 15.5 30.95 15.6 30.95 15.75C30.95 15.9 30.85 16 30.7 16H18C16.9 16 16 16.9 16 18V32C16 33.1 16.9 34 18 34H32C33.1 34 34 33.1 34 32V24.8C34 24.65 34.1 24.55 34.25 24.55C34.4 24.55 34.5 24.65 34.5 24.8V32C34.5 33.4 33.4 34.5 32 34.5Z" fill="#472B29"/>
<path d="M30.9512 21.3997C30.5012 21.5997 30.0012 21.7497 29.5012 21.7997C30.0012 21.4997 30.4012 20.9997 30.6012 20.3997C30.1012 20.6997 29.6012 20.8997 29.0012 20.9997C28.5512 20.4997 27.9012 20.1997 27.1512 20.1997C25.7512 20.1997 24.6512 21.3497 24.6512 22.7497C24.6512 22.9497 24.6512 23.1497 24.7012 23.3497C22.6012 23.2497 20.8012 22.2497 19.5512 20.6997C19.3512 21.0997 19.2012 21.4997 19.2012 21.9997C19.2012 22.8997 19.6512 23.6497 20.3012 24.1497C19.9012 24.1497 19.5012 23.9997 19.1512 23.8497C19.1512 23.8497 19.1512 23.8497 19.1512 23.8997C19.1512 25.1497 20.0012 26.1497 21.1512 26.3997C20.9512 26.4497 20.7012 26.4997 20.5012 26.4997C20.3512 26.4997 20.2012 26.4997 20.0512 26.4497C20.3512 27.4497 21.3012 28.1997 22.4012 28.1997C21.5512 28.8997 20.4512 29.2997 19.3012 29.2997C19.1012 29.2997 18.9012 29.2997 18.7012 29.2497C19.8012 29.9497 21.1012 30.3997 22.5512 30.3997C27.1512 30.3997 29.6512 26.4997 29.6512 23.1497C29.6512 23.0497 29.6512 22.9497 29.6512 22.7997C30.2012 22.3497 30.6512 21.8997 30.9512 21.3997Z" fill="#268BEF"/>
<path d="M22.5999 30.5504C21.1999 30.5504 19.7999 30.1504 18.6499 29.3504C18.5499 29.3004 18.4999 29.1504 18.5499 29.0504C18.5999 28.9504 18.6999 28.8504 18.7999 28.9004C19.8999 29.0504 20.8999 28.8004 21.7999 28.2504C20.8999 28.0004 20.1499 27.3004 19.8999 26.4004C19.8499 26.3004 19.8999 26.2004 19.9499 26.1504C19.9999 26.1004 20.0999 26.0504 20.1999 26.0504C19.4999 25.5504 18.9999 24.7004 18.9999 23.7504C18.9999 23.6504 19.0499 23.5504 19.0999 23.5004C19.1999 23.4504 19.2499 23.4504 19.3499 23.5004C19.3999 23.5504 19.4999 23.5504 19.5499 23.6004C19.1999 23.1004 18.9999 22.5504 18.9999 21.9004C18.9999 21.4004 19.1499 20.9004 19.3499 20.5004C19.3999 20.4504 19.4499 20.4004 19.5499 20.3504C19.6499 20.3504 19.6999 20.4004 19.7499 20.4504C20.8999 21.9004 22.5999 22.8504 24.3999 23.0004C24.3999 22.9004 24.3999 22.8004 24.3999 22.7004C24.3999 21.1504 25.6499 19.9004 27.1499 19.9004C27.8499 19.9004 28.5499 20.2004 29.0499 20.7004C29.5499 20.6004 29.9999 20.4004 30.4499 20.1504C30.5499 20.1004 30.6499 20.1004 30.7499 20.1504C30.8499 20.2004 30.8499 20.3004 30.8499 20.4004C30.7499 20.7504 30.5999 21.0504 30.3999 21.3004C30.5499 21.2504 30.6999 21.2004 30.8499 21.1004C30.9499 21.0504 31.0499 21.1004 31.1499 21.1504C31.1999 21.2504 31.2499 21.3504 31.1499 21.4504C30.7999 21.9504 30.3999 22.4004 29.9499 22.7504C29.9499 22.8004 29.9499 22.9004 29.9499 22.9504C29.9999 26.7504 27.1999 30.5504 22.5999 30.5504ZM19.7999 29.4504C20.6999 29.8504 21.6499 30.1004 22.6499 30.1004C26.9499 30.1004 29.4999 26.5504 29.4999 23.1004C29.4999 23.0004 29.4999 22.9004 29.4999 22.8004C29.4999 22.7004 29.5499 22.6504 29.5999 22.6004C29.8499 22.4004 30.0499 22.2004 30.2499 22.0004C30.0499 22.0504 29.7999 22.1004 29.5499 22.1504C29.4499 22.1504 29.2999 22.1004 29.2999 22.0004C29.2499 21.9004 29.2999 21.7504 29.3999 21.7004C29.6499 21.5504 29.8999 21.3004 30.0999 21.0504C29.7999 21.2004 29.4499 21.3004 29.0999 21.3504C28.9999 21.3504 28.9499 21.3504 28.8499 21.2504C28.4499 20.8004 27.8499 20.5004 27.1999 20.5004C25.9499 20.5004 24.9499 21.5504 24.9499 22.8004C24.9499 23.0004 24.9499 23.1504 24.9999 23.3504C24.9999 23.4504 24.9999 23.5004 24.9499 23.5504C24.8999 23.6004 24.7999 23.6504 24.7499 23.6504C22.7999 23.5504 20.9499 22.6504 19.6499 21.2004C19.5499 21.4504 19.4999 21.7504 19.4999 22.0504C19.4999 22.8004 19.8999 23.5504 20.4999 23.9504C20.5999 24.0004 20.6499 24.1504 20.5999 24.2504C20.5499 24.3504 20.4499 24.4504 20.3499 24.4004C20.0499 24.4004 19.7999 24.3504 19.4999 24.2504C19.6499 25.2004 20.3499 25.9504 21.2499 26.1504C21.3499 26.1504 21.4499 26.2504 21.4499 26.4004C21.4499 26.5004 21.3999 26.6004 21.2499 26.6504C20.9999 26.7004 20.6999 26.7504 20.4499 26.7504C20.8499 27.5004 21.5499 27.9504 22.3999 28.0004C22.4999 28.0004 22.5999 28.0504 22.6499 28.1504C22.6999 28.2504 22.6499 28.3504 22.5499 28.4504C21.7999 28.9504 20.7999 29.3504 19.7999 29.4504Z" fill="#472B29"/>
</svg>
